%TF.GenerationSoftware,KiCad,Pcbnew,9.0.2*%
%TF.CreationDate,2025-05-20T18:37:11-06:00*%
%TF.ProjectId,test_kicad,74657374-5f6b-4696-9361-642e6b696361,rev?*%
%TF.SameCoordinates,Original*%
%TF.FileFunction,Drillmap*%
%TF.FilePolarity,Positive*%
%FSLAX45Y45*%
G04 Gerber Fmt 4.5, Leading zero omitted, Abs format (unit mm)*
G04 Created by KiCad (PCBNEW 9.0.2) date 2025-05-20 18:37:11*
%MOMM*%
%LPD*%
G01*
G04 APERTURE LIST*
%ADD10C,0.050000*%
%ADD11C,0.200000*%
G04 APERTURE END LIST*
D10*
X10500000Y-8890511D02*
G75*
G02*
X10109489Y-8500000I0J390511D01*
G01*
X10109489Y-5353936D02*
X10109489Y-8500000D01*
X10500000Y-8890511D02*
X16446456Y-8890000D01*
X16720000Y-5338201D02*
X16720912Y-8536157D01*
X10454297Y-5043507D02*
X16435459Y-5043000D01*
X10109489Y-5353936D02*
G75*
G02*
X10454297Y-5043472I333000J-23130D01*
G01*
X16720912Y-8536157D02*
G75*
G02*
X16446459Y-8890000I-338453J-20843D01*
G01*
X16435459Y-5043000D02*
G75*
G02*
X16720000Y-5338201I-27459J-311201D01*
G01*
D11*
X10367766Y-9204495D02*
X10367766Y-9004495D01*
X10367766Y-9004495D02*
X10415385Y-9004495D01*
X10415385Y-9004495D02*
X10443956Y-9014019D01*
X10443956Y-9014019D02*
X10463004Y-9033066D01*
X10463004Y-9033066D02*
X10472528Y-9052114D01*
X10472528Y-9052114D02*
X10482051Y-9090209D01*
X10482051Y-9090209D02*
X10482051Y-9118781D01*
X10482051Y-9118781D02*
X10472528Y-9156876D01*
X10472528Y-9156876D02*
X10463004Y-9175924D01*
X10463004Y-9175924D02*
X10443956Y-9194971D01*
X10443956Y-9194971D02*
X10415385Y-9204495D01*
X10415385Y-9204495D02*
X10367766Y-9204495D01*
X10567766Y-9204495D02*
X10567766Y-9071162D01*
X10567766Y-9109257D02*
X10577289Y-9090209D01*
X10577289Y-9090209D02*
X10586813Y-9080685D01*
X10586813Y-9080685D02*
X10605861Y-9071162D01*
X10605861Y-9071162D02*
X10624909Y-9071162D01*
X10691575Y-9204495D02*
X10691575Y-9071162D01*
X10691575Y-9004495D02*
X10682051Y-9014019D01*
X10682051Y-9014019D02*
X10691575Y-9023543D01*
X10691575Y-9023543D02*
X10701099Y-9014019D01*
X10701099Y-9014019D02*
X10691575Y-9004495D01*
X10691575Y-9004495D02*
X10691575Y-9023543D01*
X10815385Y-9204495D02*
X10796337Y-9194971D01*
X10796337Y-9194971D02*
X10786813Y-9175924D01*
X10786813Y-9175924D02*
X10786813Y-9004495D01*
X10920147Y-9204495D02*
X10901099Y-9194971D01*
X10901099Y-9194971D02*
X10891575Y-9175924D01*
X10891575Y-9175924D02*
X10891575Y-9004495D01*
X11148718Y-9204495D02*
X11148718Y-9004495D01*
X11148718Y-9004495D02*
X11215385Y-9147352D01*
X11215385Y-9147352D02*
X11282051Y-9004495D01*
X11282051Y-9004495D02*
X11282051Y-9204495D01*
X11463004Y-9204495D02*
X11463004Y-9099733D01*
X11463004Y-9099733D02*
X11453480Y-9080685D01*
X11453480Y-9080685D02*
X11434432Y-9071162D01*
X11434432Y-9071162D02*
X11396337Y-9071162D01*
X11396337Y-9071162D02*
X11377289Y-9080685D01*
X11463004Y-9194971D02*
X11443956Y-9204495D01*
X11443956Y-9204495D02*
X11396337Y-9204495D01*
X11396337Y-9204495D02*
X11377289Y-9194971D01*
X11377289Y-9194971D02*
X11367766Y-9175924D01*
X11367766Y-9175924D02*
X11367766Y-9156876D01*
X11367766Y-9156876D02*
X11377289Y-9137828D01*
X11377289Y-9137828D02*
X11396337Y-9128305D01*
X11396337Y-9128305D02*
X11443956Y-9128305D01*
X11443956Y-9128305D02*
X11463004Y-9118781D01*
X11558242Y-9071162D02*
X11558242Y-9271162D01*
X11558242Y-9080685D02*
X11577289Y-9071162D01*
X11577289Y-9071162D02*
X11615385Y-9071162D01*
X11615385Y-9071162D02*
X11634432Y-9080685D01*
X11634432Y-9080685D02*
X11643956Y-9090209D01*
X11643956Y-9090209D02*
X11653480Y-9109257D01*
X11653480Y-9109257D02*
X11653480Y-9166400D01*
X11653480Y-9166400D02*
X11643956Y-9185447D01*
X11643956Y-9185447D02*
X11634432Y-9194971D01*
X11634432Y-9194971D02*
X11615385Y-9204495D01*
X11615385Y-9204495D02*
X11577289Y-9204495D01*
X11577289Y-9204495D02*
X11558242Y-9194971D01*
X11739194Y-9185447D02*
X11748718Y-9194971D01*
X11748718Y-9194971D02*
X11739194Y-9204495D01*
X11739194Y-9204495D02*
X11729670Y-9194971D01*
X11729670Y-9194971D02*
X11739194Y-9185447D01*
X11739194Y-9185447D02*
X11739194Y-9204495D01*
X11739194Y-9080685D02*
X11748718Y-9090209D01*
X11748718Y-9090209D02*
X11739194Y-9099733D01*
X11739194Y-9099733D02*
X11729670Y-9090209D01*
X11729670Y-9090209D02*
X11739194Y-9080685D01*
X11739194Y-9080685D02*
X11739194Y-9099733D01*
M02*
