%TF.GenerationSoftware,KiCad,Pcbnew,9.0.2*%
%TF.CreationDate,2025-05-20T16:04:07-06:00*%
%TF.ProjectId,test_kicad,74657374-5f6b-4696-9361-642e6b696361,rev?*%
%TF.SameCoordinates,Original*%
%TF.FileFunction,Drillmap*%
%TF.FilePolarity,Positive*%
%FSLAX45Y45*%
G04 Gerber Fmt 4.5, Leading zero omitted, Abs format (unit mm)*
G04 Created by KiCad (PCBNEW 9.0.2) date 2025-05-20 16:04:07*
%MOMM*%
%LPD*%
G01*
G04 APERTURE LIST*
%ADD10C,0.050000*%
%ADD11C,0.200000*%
%ADD12C,0.100000*%
%ADD13C,0.110000*%
%ADD14C,0.500000*%
G04 APERTURE END LIST*
D10*
X10123356Y-5353936D02*
X10123356Y-8890511D01*
X10123356Y-8890511D02*
X16446456Y-8890000D01*
X16720000Y-5338201D02*
X16720912Y-8536157D01*
X10468165Y-5043506D02*
X16435459Y-5043000D01*
X10123356Y-5353935D02*
G75*
G02*
X10468165Y-5043471I333000J-23130D01*
G01*
X16720912Y-8536157D02*
G75*
G02*
X16446459Y-8890000I-338453J-20843D01*
G01*
X16435459Y-5043000D02*
G75*
G02*
X16720000Y-5338201I-27459J-311201D01*
G01*
D11*
D12*
X14184000Y-8088000D02*
X14264000Y-8168000D01*
X14264000Y-8088000D02*
X14184000Y-8168000D01*
X14298000Y-5560000D02*
X14378000Y-5640000D01*
X14378000Y-5560000D02*
X14298000Y-5640000D01*
X14298000Y-6810000D02*
X14378000Y-6890000D01*
X14378000Y-6810000D02*
X14298000Y-6890000D01*
X14946000Y-8088000D02*
X15026000Y-8168000D01*
X15026000Y-8088000D02*
X14946000Y-8168000D01*
X15060000Y-5560000D02*
X15140000Y-5640000D01*
X15140000Y-5560000D02*
X15060000Y-5640000D01*
X15060000Y-6810000D02*
X15140000Y-6890000D01*
X15140000Y-6810000D02*
X15060000Y-6890000D01*
X15825000Y-5480000D02*
G75*
G02*
X15735000Y-5480000I-45000J0D01*
G01*
X15735000Y-5480000D02*
G75*
G02*
X15825000Y-5480000I45000J0D01*
G01*
X15825000Y-5734000D02*
G75*
G02*
X15735000Y-5734000I-45000J0D01*
G01*
X15735000Y-5734000D02*
G75*
G02*
X15825000Y-5734000I45000J0D01*
G01*
X15845000Y-6723500D02*
G75*
G02*
X15755000Y-6723500I-45000J0D01*
G01*
X15755000Y-6723500D02*
G75*
G02*
X15845000Y-6723500I45000J0D01*
G01*
X15845000Y-6977500D02*
G75*
G02*
X15755000Y-6977500I-45000J0D01*
G01*
X15755000Y-6977500D02*
G75*
G02*
X15845000Y-6977500I45000J0D01*
G01*
X15853000Y-7851000D02*
G75*
G02*
X15763000Y-7851000I-45000J0D01*
G01*
X15763000Y-7851000D02*
G75*
G02*
X15853000Y-7851000I45000J0D01*
G01*
X15853000Y-8105000D02*
G75*
G02*
X15763000Y-8105000I-45000J0D01*
G01*
X15763000Y-8105000D02*
G75*
G02*
X15853000Y-8105000I45000J0D01*
G01*
D13*
X13275000Y-5320000D02*
X13275000Y-5430000D01*
X13220000Y-5375000D02*
X13330000Y-5375000D01*
X13275000Y-5970000D02*
X13275000Y-6080000D01*
X13220000Y-6025000D02*
X13330000Y-6025000D01*
X13300000Y-6495000D02*
X13300000Y-6605000D01*
X13245000Y-6550000D02*
X13355000Y-6550000D01*
X13300000Y-7145000D02*
X13300000Y-7255000D01*
X13245000Y-7200000D02*
X13355000Y-7200000D01*
X13300000Y-7645000D02*
X13300000Y-7755000D01*
X13245000Y-7700000D02*
X13355000Y-7700000D01*
X13300000Y-8295000D02*
X13300000Y-8405000D01*
X13245000Y-8350000D02*
X13355000Y-8350000D01*
X13725000Y-5320000D02*
X13725000Y-5430000D01*
X13670000Y-5375000D02*
X13780000Y-5375000D01*
X13725000Y-5970000D02*
X13725000Y-6080000D01*
X13670000Y-6025000D02*
X13780000Y-6025000D01*
X13750000Y-6495000D02*
X13750000Y-6605000D01*
X13695000Y-6550000D02*
X13805000Y-6550000D01*
X13750000Y-7145000D02*
X13750000Y-7255000D01*
X13695000Y-7200000D02*
X13805000Y-7200000D01*
X13750000Y-7645000D02*
X13750000Y-7755000D01*
X13695000Y-7700000D02*
X13805000Y-7700000D01*
X13750000Y-8295000D02*
X13750000Y-8405000D01*
X13695000Y-8350000D02*
X13805000Y-8350000D01*
D14*
X10716778Y-8696778D02*
X10716778Y-8343222D01*
X10363222Y-8343222D01*
X10363222Y-8696778D01*
X10716778Y-8696778D01*
D11*
X10381633Y-9204495D02*
X10381633Y-9004495D01*
X10381633Y-9004495D02*
X10429252Y-9004495D01*
X10429252Y-9004495D02*
X10457823Y-9014019D01*
X10457823Y-9014019D02*
X10476871Y-9033066D01*
X10476871Y-9033066D02*
X10486395Y-9052114D01*
X10486395Y-9052114D02*
X10495919Y-9090209D01*
X10495919Y-9090209D02*
X10495919Y-9118781D01*
X10495919Y-9118781D02*
X10486395Y-9156876D01*
X10486395Y-9156876D02*
X10476871Y-9175924D01*
X10476871Y-9175924D02*
X10457823Y-9194971D01*
X10457823Y-9194971D02*
X10429252Y-9204495D01*
X10429252Y-9204495D02*
X10381633Y-9204495D01*
X10581633Y-9204495D02*
X10581633Y-9071162D01*
X10581633Y-9109257D02*
X10591157Y-9090209D01*
X10591157Y-9090209D02*
X10600681Y-9080685D01*
X10600681Y-9080685D02*
X10619728Y-9071162D01*
X10619728Y-9071162D02*
X10638776Y-9071162D01*
X10705442Y-9204495D02*
X10705442Y-9071162D01*
X10705442Y-9004495D02*
X10695919Y-9014019D01*
X10695919Y-9014019D02*
X10705442Y-9023543D01*
X10705442Y-9023543D02*
X10714966Y-9014019D01*
X10714966Y-9014019D02*
X10705442Y-9004495D01*
X10705442Y-9004495D02*
X10705442Y-9023543D01*
X10829252Y-9204495D02*
X10810204Y-9194971D01*
X10810204Y-9194971D02*
X10800681Y-9175924D01*
X10800681Y-9175924D02*
X10800681Y-9004495D01*
X10934014Y-9204495D02*
X10914966Y-9194971D01*
X10914966Y-9194971D02*
X10905442Y-9175924D01*
X10905442Y-9175924D02*
X10905442Y-9004495D01*
X11162585Y-9204495D02*
X11162585Y-9004495D01*
X11162585Y-9004495D02*
X11229252Y-9147352D01*
X11229252Y-9147352D02*
X11295919Y-9004495D01*
X11295919Y-9004495D02*
X11295919Y-9204495D01*
X11476871Y-9204495D02*
X11476871Y-9099733D01*
X11476871Y-9099733D02*
X11467347Y-9080685D01*
X11467347Y-9080685D02*
X11448300Y-9071162D01*
X11448300Y-9071162D02*
X11410204Y-9071162D01*
X11410204Y-9071162D02*
X11391157Y-9080685D01*
X11476871Y-9194971D02*
X11457823Y-9204495D01*
X11457823Y-9204495D02*
X11410204Y-9204495D01*
X11410204Y-9204495D02*
X11391157Y-9194971D01*
X11391157Y-9194971D02*
X11381633Y-9175924D01*
X11381633Y-9175924D02*
X11381633Y-9156876D01*
X11381633Y-9156876D02*
X11391157Y-9137828D01*
X11391157Y-9137828D02*
X11410204Y-9128305D01*
X11410204Y-9128305D02*
X11457823Y-9128305D01*
X11457823Y-9128305D02*
X11476871Y-9118781D01*
X11572109Y-9071162D02*
X11572109Y-9271162D01*
X11572109Y-9080685D02*
X11591157Y-9071162D01*
X11591157Y-9071162D02*
X11629252Y-9071162D01*
X11629252Y-9071162D02*
X11648300Y-9080685D01*
X11648300Y-9080685D02*
X11657823Y-9090209D01*
X11657823Y-9090209D02*
X11667347Y-9109257D01*
X11667347Y-9109257D02*
X11667347Y-9166400D01*
X11667347Y-9166400D02*
X11657823Y-9185447D01*
X11657823Y-9185447D02*
X11648300Y-9194971D01*
X11648300Y-9194971D02*
X11629252Y-9204495D01*
X11629252Y-9204495D02*
X11591157Y-9204495D01*
X11591157Y-9204495D02*
X11572109Y-9194971D01*
X11753061Y-9185447D02*
X11762585Y-9194971D01*
X11762585Y-9194971D02*
X11753061Y-9204495D01*
X11753061Y-9204495D02*
X11743538Y-9194971D01*
X11743538Y-9194971D02*
X11753061Y-9185447D01*
X11753061Y-9185447D02*
X11753061Y-9204495D01*
X11753061Y-9080685D02*
X11762585Y-9090209D01*
X11762585Y-9090209D02*
X11753061Y-9099733D01*
X11753061Y-9099733D02*
X11743538Y-9090209D01*
X11743538Y-9090209D02*
X11753061Y-9080685D01*
X11753061Y-9080685D02*
X11753061Y-9099733D01*
D12*
X10040856Y-9493011D02*
X10120856Y-9573011D01*
X10120856Y-9493011D02*
X10040856Y-9573011D01*
D11*
X10419728Y-9424495D02*
X10438776Y-9424495D01*
X10438776Y-9424495D02*
X10457823Y-9434019D01*
X10457823Y-9434019D02*
X10467347Y-9443543D01*
X10467347Y-9443543D02*
X10476871Y-9462590D01*
X10476871Y-9462590D02*
X10486395Y-9500685D01*
X10486395Y-9500685D02*
X10486395Y-9548305D01*
X10486395Y-9548305D02*
X10476871Y-9586400D01*
X10476871Y-9586400D02*
X10467347Y-9605447D01*
X10467347Y-9605447D02*
X10457823Y-9614971D01*
X10457823Y-9614971D02*
X10438776Y-9624495D01*
X10438776Y-9624495D02*
X10419728Y-9624495D01*
X10419728Y-9624495D02*
X10400681Y-9614971D01*
X10400681Y-9614971D02*
X10391157Y-9605447D01*
X10391157Y-9605447D02*
X10381633Y-9586400D01*
X10381633Y-9586400D02*
X10372109Y-9548305D01*
X10372109Y-9548305D02*
X10372109Y-9500685D01*
X10372109Y-9500685D02*
X10381633Y-9462590D01*
X10381633Y-9462590D02*
X10391157Y-9443543D01*
X10391157Y-9443543D02*
X10400681Y-9434019D01*
X10400681Y-9434019D02*
X10419728Y-9424495D01*
X10572109Y-9605447D02*
X10581633Y-9614971D01*
X10581633Y-9614971D02*
X10572109Y-9624495D01*
X10572109Y-9624495D02*
X10562585Y-9614971D01*
X10562585Y-9614971D02*
X10572109Y-9605447D01*
X10572109Y-9605447D02*
X10572109Y-9624495D01*
X10695919Y-9510209D02*
X10676871Y-9500685D01*
X10676871Y-9500685D02*
X10667347Y-9491162D01*
X10667347Y-9491162D02*
X10657823Y-9472114D01*
X10657823Y-9472114D02*
X10657823Y-9462590D01*
X10657823Y-9462590D02*
X10667347Y-9443543D01*
X10667347Y-9443543D02*
X10676871Y-9434019D01*
X10676871Y-9434019D02*
X10695919Y-9424495D01*
X10695919Y-9424495D02*
X10734014Y-9424495D01*
X10734014Y-9424495D02*
X10753062Y-9434019D01*
X10753062Y-9434019D02*
X10762585Y-9443543D01*
X10762585Y-9443543D02*
X10772109Y-9462590D01*
X10772109Y-9462590D02*
X10772109Y-9472114D01*
X10772109Y-9472114D02*
X10762585Y-9491162D01*
X10762585Y-9491162D02*
X10753062Y-9500685D01*
X10753062Y-9500685D02*
X10734014Y-9510209D01*
X10734014Y-9510209D02*
X10695919Y-9510209D01*
X10695919Y-9510209D02*
X10676871Y-9519733D01*
X10676871Y-9519733D02*
X10667347Y-9529257D01*
X10667347Y-9529257D02*
X10657823Y-9548305D01*
X10657823Y-9548305D02*
X10657823Y-9586400D01*
X10657823Y-9586400D02*
X10667347Y-9605447D01*
X10667347Y-9605447D02*
X10676871Y-9614971D01*
X10676871Y-9614971D02*
X10695919Y-9624495D01*
X10695919Y-9624495D02*
X10734014Y-9624495D01*
X10734014Y-9624495D02*
X10753062Y-9614971D01*
X10753062Y-9614971D02*
X10762585Y-9605447D01*
X10762585Y-9605447D02*
X10772109Y-9586400D01*
X10772109Y-9586400D02*
X10772109Y-9548305D01*
X10772109Y-9548305D02*
X10762585Y-9529257D01*
X10762585Y-9529257D02*
X10753062Y-9519733D01*
X10753062Y-9519733D02*
X10734014Y-9510209D01*
X10895919Y-9424495D02*
X10914966Y-9424495D01*
X10914966Y-9424495D02*
X10934014Y-9434019D01*
X10934014Y-9434019D02*
X10943538Y-9443543D01*
X10943538Y-9443543D02*
X10953062Y-9462590D01*
X10953062Y-9462590D02*
X10962585Y-9500685D01*
X10962585Y-9500685D02*
X10962585Y-9548305D01*
X10962585Y-9548305D02*
X10953062Y-9586400D01*
X10953062Y-9586400D02*
X10943538Y-9605447D01*
X10943538Y-9605447D02*
X10934014Y-9614971D01*
X10934014Y-9614971D02*
X10914966Y-9624495D01*
X10914966Y-9624495D02*
X10895919Y-9624495D01*
X10895919Y-9624495D02*
X10876871Y-9614971D01*
X10876871Y-9614971D02*
X10867347Y-9605447D01*
X10867347Y-9605447D02*
X10857823Y-9586400D01*
X10857823Y-9586400D02*
X10848300Y-9548305D01*
X10848300Y-9548305D02*
X10848300Y-9500685D01*
X10848300Y-9500685D02*
X10857823Y-9462590D01*
X10857823Y-9462590D02*
X10867347Y-9443543D01*
X10867347Y-9443543D02*
X10876871Y-9434019D01*
X10876871Y-9434019D02*
X10895919Y-9424495D01*
X11086395Y-9424495D02*
X11105443Y-9424495D01*
X11105443Y-9424495D02*
X11124490Y-9434019D01*
X11124490Y-9434019D02*
X11134014Y-9443543D01*
X11134014Y-9443543D02*
X11143538Y-9462590D01*
X11143538Y-9462590D02*
X11153062Y-9500685D01*
X11153062Y-9500685D02*
X11153062Y-9548305D01*
X11153062Y-9548305D02*
X11143538Y-9586400D01*
X11143538Y-9586400D02*
X11134014Y-9605447D01*
X11134014Y-9605447D02*
X11124490Y-9614971D01*
X11124490Y-9614971D02*
X11105443Y-9624495D01*
X11105443Y-9624495D02*
X11086395Y-9624495D01*
X11086395Y-9624495D02*
X11067347Y-9614971D01*
X11067347Y-9614971D02*
X11057823Y-9605447D01*
X11057823Y-9605447D02*
X11048300Y-9586400D01*
X11048300Y-9586400D02*
X11038776Y-9548305D01*
X11038776Y-9548305D02*
X11038776Y-9500685D01*
X11038776Y-9500685D02*
X11048300Y-9462590D01*
X11048300Y-9462590D02*
X11057823Y-9443543D01*
X11057823Y-9443543D02*
X11067347Y-9434019D01*
X11067347Y-9434019D02*
X11086395Y-9424495D01*
X11238776Y-9624495D02*
X11238776Y-9491162D01*
X11238776Y-9510209D02*
X11248300Y-9500685D01*
X11248300Y-9500685D02*
X11267347Y-9491162D01*
X11267347Y-9491162D02*
X11295919Y-9491162D01*
X11295919Y-9491162D02*
X11314966Y-9500685D01*
X11314966Y-9500685D02*
X11324490Y-9519733D01*
X11324490Y-9519733D02*
X11324490Y-9624495D01*
X11324490Y-9519733D02*
X11334014Y-9500685D01*
X11334014Y-9500685D02*
X11353061Y-9491162D01*
X11353061Y-9491162D02*
X11381633Y-9491162D01*
X11381633Y-9491162D02*
X11400681Y-9500685D01*
X11400681Y-9500685D02*
X11410204Y-9519733D01*
X11410204Y-9519733D02*
X11410204Y-9624495D01*
X11505442Y-9624495D02*
X11505442Y-9491162D01*
X11505442Y-9510209D02*
X11514966Y-9500685D01*
X11514966Y-9500685D02*
X11534014Y-9491162D01*
X11534014Y-9491162D02*
X11562585Y-9491162D01*
X11562585Y-9491162D02*
X11581633Y-9500685D01*
X11581633Y-9500685D02*
X11591157Y-9519733D01*
X11591157Y-9519733D02*
X11591157Y-9624495D01*
X11591157Y-9519733D02*
X11600681Y-9500685D01*
X11600681Y-9500685D02*
X11619728Y-9491162D01*
X11619728Y-9491162D02*
X11648300Y-9491162D01*
X11648300Y-9491162D02*
X11667347Y-9500685D01*
X11667347Y-9500685D02*
X11676871Y-9519733D01*
X11676871Y-9519733D02*
X11676871Y-9624495D01*
X12067347Y-9414971D02*
X11895919Y-9672114D01*
X12324490Y-9424495D02*
X12343538Y-9424495D01*
X12343538Y-9424495D02*
X12362585Y-9434019D01*
X12362585Y-9434019D02*
X12372109Y-9443543D01*
X12372109Y-9443543D02*
X12381633Y-9462590D01*
X12381633Y-9462590D02*
X12391157Y-9500685D01*
X12391157Y-9500685D02*
X12391157Y-9548305D01*
X12391157Y-9548305D02*
X12381633Y-9586400D01*
X12381633Y-9586400D02*
X12372109Y-9605447D01*
X12372109Y-9605447D02*
X12362585Y-9614971D01*
X12362585Y-9614971D02*
X12343538Y-9624495D01*
X12343538Y-9624495D02*
X12324490Y-9624495D01*
X12324490Y-9624495D02*
X12305443Y-9614971D01*
X12305443Y-9614971D02*
X12295919Y-9605447D01*
X12295919Y-9605447D02*
X12286395Y-9586400D01*
X12286395Y-9586400D02*
X12276871Y-9548305D01*
X12276871Y-9548305D02*
X12276871Y-9500685D01*
X12276871Y-9500685D02*
X12286395Y-9462590D01*
X12286395Y-9462590D02*
X12295919Y-9443543D01*
X12295919Y-9443543D02*
X12305443Y-9434019D01*
X12305443Y-9434019D02*
X12324490Y-9424495D01*
X12476871Y-9605447D02*
X12486395Y-9614971D01*
X12486395Y-9614971D02*
X12476871Y-9624495D01*
X12476871Y-9624495D02*
X12467347Y-9614971D01*
X12467347Y-9614971D02*
X12476871Y-9605447D01*
X12476871Y-9605447D02*
X12476871Y-9624495D01*
X12610204Y-9424495D02*
X12629252Y-9424495D01*
X12629252Y-9424495D02*
X12648300Y-9434019D01*
X12648300Y-9434019D02*
X12657824Y-9443543D01*
X12657824Y-9443543D02*
X12667347Y-9462590D01*
X12667347Y-9462590D02*
X12676871Y-9500685D01*
X12676871Y-9500685D02*
X12676871Y-9548305D01*
X12676871Y-9548305D02*
X12667347Y-9586400D01*
X12667347Y-9586400D02*
X12657824Y-9605447D01*
X12657824Y-9605447D02*
X12648300Y-9614971D01*
X12648300Y-9614971D02*
X12629252Y-9624495D01*
X12629252Y-9624495D02*
X12610204Y-9624495D01*
X12610204Y-9624495D02*
X12591157Y-9614971D01*
X12591157Y-9614971D02*
X12581633Y-9605447D01*
X12581633Y-9605447D02*
X12572109Y-9586400D01*
X12572109Y-9586400D02*
X12562585Y-9548305D01*
X12562585Y-9548305D02*
X12562585Y-9500685D01*
X12562585Y-9500685D02*
X12572109Y-9462590D01*
X12572109Y-9462590D02*
X12581633Y-9443543D01*
X12581633Y-9443543D02*
X12591157Y-9434019D01*
X12591157Y-9434019D02*
X12610204Y-9424495D01*
X12743538Y-9424495D02*
X12867347Y-9424495D01*
X12867347Y-9424495D02*
X12800681Y-9500685D01*
X12800681Y-9500685D02*
X12829252Y-9500685D01*
X12829252Y-9500685D02*
X12848300Y-9510209D01*
X12848300Y-9510209D02*
X12857824Y-9519733D01*
X12857824Y-9519733D02*
X12867347Y-9538781D01*
X12867347Y-9538781D02*
X12867347Y-9586400D01*
X12867347Y-9586400D02*
X12857824Y-9605447D01*
X12857824Y-9605447D02*
X12848300Y-9614971D01*
X12848300Y-9614971D02*
X12829252Y-9624495D01*
X12829252Y-9624495D02*
X12772109Y-9624495D01*
X12772109Y-9624495D02*
X12753062Y-9614971D01*
X12753062Y-9614971D02*
X12743538Y-9605447D01*
X13057824Y-9624495D02*
X12943538Y-9624495D01*
X13000681Y-9624495D02*
X13000681Y-9424495D01*
X13000681Y-9424495D02*
X12981633Y-9453066D01*
X12981633Y-9453066D02*
X12962585Y-9472114D01*
X12962585Y-9472114D02*
X12943538Y-9481638D01*
X13238776Y-9424495D02*
X13143538Y-9424495D01*
X13143538Y-9424495D02*
X13134014Y-9519733D01*
X13134014Y-9519733D02*
X13143538Y-9510209D01*
X13143538Y-9510209D02*
X13162585Y-9500685D01*
X13162585Y-9500685D02*
X13210205Y-9500685D01*
X13210205Y-9500685D02*
X13229252Y-9510209D01*
X13229252Y-9510209D02*
X13238776Y-9519733D01*
X13238776Y-9519733D02*
X13248300Y-9538781D01*
X13248300Y-9538781D02*
X13248300Y-9586400D01*
X13248300Y-9586400D02*
X13238776Y-9605447D01*
X13238776Y-9605447D02*
X13229252Y-9614971D01*
X13229252Y-9614971D02*
X13210205Y-9624495D01*
X13210205Y-9624495D02*
X13162585Y-9624495D01*
X13162585Y-9624495D02*
X13143538Y-9614971D01*
X13143538Y-9614971D02*
X13134014Y-9605447D01*
X13324490Y-9424495D02*
X13324490Y-9462590D01*
X13400681Y-9424495D02*
X13400681Y-9462590D01*
X13695919Y-9700685D02*
X13686395Y-9691162D01*
X13686395Y-9691162D02*
X13667347Y-9662590D01*
X13667347Y-9662590D02*
X13657824Y-9643543D01*
X13657824Y-9643543D02*
X13648300Y-9614971D01*
X13648300Y-9614971D02*
X13638776Y-9567352D01*
X13638776Y-9567352D02*
X13638776Y-9529257D01*
X13638776Y-9529257D02*
X13648300Y-9481638D01*
X13648300Y-9481638D02*
X13657824Y-9453066D01*
X13657824Y-9453066D02*
X13667347Y-9434019D01*
X13667347Y-9434019D02*
X13686395Y-9405447D01*
X13686395Y-9405447D02*
X13695919Y-9395924D01*
X13857824Y-9424495D02*
X13819728Y-9424495D01*
X13819728Y-9424495D02*
X13800681Y-9434019D01*
X13800681Y-9434019D02*
X13791157Y-9443543D01*
X13791157Y-9443543D02*
X13772109Y-9472114D01*
X13772109Y-9472114D02*
X13762586Y-9510209D01*
X13762586Y-9510209D02*
X13762586Y-9586400D01*
X13762586Y-9586400D02*
X13772109Y-9605447D01*
X13772109Y-9605447D02*
X13781633Y-9614971D01*
X13781633Y-9614971D02*
X13800681Y-9624495D01*
X13800681Y-9624495D02*
X13838776Y-9624495D01*
X13838776Y-9624495D02*
X13857824Y-9614971D01*
X13857824Y-9614971D02*
X13867347Y-9605447D01*
X13867347Y-9605447D02*
X13876871Y-9586400D01*
X13876871Y-9586400D02*
X13876871Y-9538781D01*
X13876871Y-9538781D02*
X13867347Y-9519733D01*
X13867347Y-9519733D02*
X13857824Y-9510209D01*
X13857824Y-9510209D02*
X13838776Y-9500685D01*
X13838776Y-9500685D02*
X13800681Y-9500685D01*
X13800681Y-9500685D02*
X13781633Y-9510209D01*
X13781633Y-9510209D02*
X13772109Y-9519733D01*
X13772109Y-9519733D02*
X13762586Y-9538781D01*
X14114967Y-9624495D02*
X14114967Y-9424495D01*
X14200681Y-9624495D02*
X14200681Y-9519733D01*
X14200681Y-9519733D02*
X14191157Y-9500685D01*
X14191157Y-9500685D02*
X14172109Y-9491162D01*
X14172109Y-9491162D02*
X14143538Y-9491162D01*
X14143538Y-9491162D02*
X14124490Y-9500685D01*
X14124490Y-9500685D02*
X14114967Y-9510209D01*
X14324490Y-9624495D02*
X14305443Y-9614971D01*
X14305443Y-9614971D02*
X14295919Y-9605447D01*
X14295919Y-9605447D02*
X14286395Y-9586400D01*
X14286395Y-9586400D02*
X14286395Y-9529257D01*
X14286395Y-9529257D02*
X14295919Y-9510209D01*
X14295919Y-9510209D02*
X14305443Y-9500685D01*
X14305443Y-9500685D02*
X14324490Y-9491162D01*
X14324490Y-9491162D02*
X14353062Y-9491162D01*
X14353062Y-9491162D02*
X14372109Y-9500685D01*
X14372109Y-9500685D02*
X14381633Y-9510209D01*
X14381633Y-9510209D02*
X14391157Y-9529257D01*
X14391157Y-9529257D02*
X14391157Y-9586400D01*
X14391157Y-9586400D02*
X14381633Y-9605447D01*
X14381633Y-9605447D02*
X14372109Y-9614971D01*
X14372109Y-9614971D02*
X14353062Y-9624495D01*
X14353062Y-9624495D02*
X14324490Y-9624495D01*
X14505443Y-9624495D02*
X14486395Y-9614971D01*
X14486395Y-9614971D02*
X14476871Y-9595924D01*
X14476871Y-9595924D02*
X14476871Y-9424495D01*
X14657824Y-9614971D02*
X14638776Y-9624495D01*
X14638776Y-9624495D02*
X14600681Y-9624495D01*
X14600681Y-9624495D02*
X14581633Y-9614971D01*
X14581633Y-9614971D02*
X14572109Y-9595924D01*
X14572109Y-9595924D02*
X14572109Y-9519733D01*
X14572109Y-9519733D02*
X14581633Y-9500685D01*
X14581633Y-9500685D02*
X14600681Y-9491162D01*
X14600681Y-9491162D02*
X14638776Y-9491162D01*
X14638776Y-9491162D02*
X14657824Y-9500685D01*
X14657824Y-9500685D02*
X14667348Y-9519733D01*
X14667348Y-9519733D02*
X14667348Y-9538781D01*
X14667348Y-9538781D02*
X14572109Y-9557828D01*
X14743538Y-9614971D02*
X14762586Y-9624495D01*
X14762586Y-9624495D02*
X14800681Y-9624495D01*
X14800681Y-9624495D02*
X14819729Y-9614971D01*
X14819729Y-9614971D02*
X14829252Y-9595924D01*
X14829252Y-9595924D02*
X14829252Y-9586400D01*
X14829252Y-9586400D02*
X14819729Y-9567352D01*
X14819729Y-9567352D02*
X14800681Y-9557828D01*
X14800681Y-9557828D02*
X14772109Y-9557828D01*
X14772109Y-9557828D02*
X14753062Y-9548305D01*
X14753062Y-9548305D02*
X14743538Y-9529257D01*
X14743538Y-9529257D02*
X14743538Y-9519733D01*
X14743538Y-9519733D02*
X14753062Y-9500685D01*
X14753062Y-9500685D02*
X14772109Y-9491162D01*
X14772109Y-9491162D02*
X14800681Y-9491162D01*
X14800681Y-9491162D02*
X14819729Y-9500685D01*
X14895919Y-9700685D02*
X14905443Y-9691162D01*
X14905443Y-9691162D02*
X14924490Y-9662590D01*
X14924490Y-9662590D02*
X14934014Y-9643543D01*
X14934014Y-9643543D02*
X14943538Y-9614971D01*
X14943538Y-9614971D02*
X14953062Y-9567352D01*
X14953062Y-9567352D02*
X14953062Y-9529257D01*
X14953062Y-9529257D02*
X14943538Y-9481638D01*
X14943538Y-9481638D02*
X14934014Y-9453066D01*
X14934014Y-9453066D02*
X14924490Y-9434019D01*
X14924490Y-9434019D02*
X14905443Y-9405447D01*
X14905443Y-9405447D02*
X14895919Y-9395924D01*
D12*
X10120856Y-9797011D02*
G75*
G02*
X10030856Y-9797011I-45000J0D01*
G01*
X10030856Y-9797011D02*
G75*
G02*
X10120856Y-9797011I45000J0D01*
G01*
D11*
X10419728Y-9688495D02*
X10438776Y-9688495D01*
X10438776Y-9688495D02*
X10457823Y-9698019D01*
X10457823Y-9698019D02*
X10467347Y-9707543D01*
X10467347Y-9707543D02*
X10476871Y-9726590D01*
X10476871Y-9726590D02*
X10486395Y-9764685D01*
X10486395Y-9764685D02*
X10486395Y-9812305D01*
X10486395Y-9812305D02*
X10476871Y-9850400D01*
X10476871Y-9850400D02*
X10467347Y-9869447D01*
X10467347Y-9869447D02*
X10457823Y-9878971D01*
X10457823Y-9878971D02*
X10438776Y-9888495D01*
X10438776Y-9888495D02*
X10419728Y-9888495D01*
X10419728Y-9888495D02*
X10400681Y-9878971D01*
X10400681Y-9878971D02*
X10391157Y-9869447D01*
X10391157Y-9869447D02*
X10381633Y-9850400D01*
X10381633Y-9850400D02*
X10372109Y-9812305D01*
X10372109Y-9812305D02*
X10372109Y-9764685D01*
X10372109Y-9764685D02*
X10381633Y-9726590D01*
X10381633Y-9726590D02*
X10391157Y-9707543D01*
X10391157Y-9707543D02*
X10400681Y-9698019D01*
X10400681Y-9698019D02*
X10419728Y-9688495D01*
X10572109Y-9869447D02*
X10581633Y-9878971D01*
X10581633Y-9878971D02*
X10572109Y-9888495D01*
X10572109Y-9888495D02*
X10562585Y-9878971D01*
X10562585Y-9878971D02*
X10572109Y-9869447D01*
X10572109Y-9869447D02*
X10572109Y-9888495D01*
X10676871Y-9888495D02*
X10714966Y-9888495D01*
X10714966Y-9888495D02*
X10734014Y-9878971D01*
X10734014Y-9878971D02*
X10743538Y-9869447D01*
X10743538Y-9869447D02*
X10762585Y-9840876D01*
X10762585Y-9840876D02*
X10772109Y-9802781D01*
X10772109Y-9802781D02*
X10772109Y-9726590D01*
X10772109Y-9726590D02*
X10762585Y-9707543D01*
X10762585Y-9707543D02*
X10753062Y-9698019D01*
X10753062Y-9698019D02*
X10734014Y-9688495D01*
X10734014Y-9688495D02*
X10695919Y-9688495D01*
X10695919Y-9688495D02*
X10676871Y-9698019D01*
X10676871Y-9698019D02*
X10667347Y-9707543D01*
X10667347Y-9707543D02*
X10657823Y-9726590D01*
X10657823Y-9726590D02*
X10657823Y-9774209D01*
X10657823Y-9774209D02*
X10667347Y-9793257D01*
X10667347Y-9793257D02*
X10676871Y-9802781D01*
X10676871Y-9802781D02*
X10695919Y-9812305D01*
X10695919Y-9812305D02*
X10734014Y-9812305D01*
X10734014Y-9812305D02*
X10753062Y-9802781D01*
X10753062Y-9802781D02*
X10762585Y-9793257D01*
X10762585Y-9793257D02*
X10772109Y-9774209D01*
X10895919Y-9688495D02*
X10914966Y-9688495D01*
X10914966Y-9688495D02*
X10934014Y-9698019D01*
X10934014Y-9698019D02*
X10943538Y-9707543D01*
X10943538Y-9707543D02*
X10953062Y-9726590D01*
X10953062Y-9726590D02*
X10962585Y-9764685D01*
X10962585Y-9764685D02*
X10962585Y-9812305D01*
X10962585Y-9812305D02*
X10953062Y-9850400D01*
X10953062Y-9850400D02*
X10943538Y-9869447D01*
X10943538Y-9869447D02*
X10934014Y-9878971D01*
X10934014Y-9878971D02*
X10914966Y-9888495D01*
X10914966Y-9888495D02*
X10895919Y-9888495D01*
X10895919Y-9888495D02*
X10876871Y-9878971D01*
X10876871Y-9878971D02*
X10867347Y-9869447D01*
X10867347Y-9869447D02*
X10857823Y-9850400D01*
X10857823Y-9850400D02*
X10848300Y-9812305D01*
X10848300Y-9812305D02*
X10848300Y-9764685D01*
X10848300Y-9764685D02*
X10857823Y-9726590D01*
X10857823Y-9726590D02*
X10867347Y-9707543D01*
X10867347Y-9707543D02*
X10876871Y-9698019D01*
X10876871Y-9698019D02*
X10895919Y-9688495D01*
X11086395Y-9688495D02*
X11105443Y-9688495D01*
X11105443Y-9688495D02*
X11124490Y-9698019D01*
X11124490Y-9698019D02*
X11134014Y-9707543D01*
X11134014Y-9707543D02*
X11143538Y-9726590D01*
X11143538Y-9726590D02*
X11153062Y-9764685D01*
X11153062Y-9764685D02*
X11153062Y-9812305D01*
X11153062Y-9812305D02*
X11143538Y-9850400D01*
X11143538Y-9850400D02*
X11134014Y-9869447D01*
X11134014Y-9869447D02*
X11124490Y-9878971D01*
X11124490Y-9878971D02*
X11105443Y-9888495D01*
X11105443Y-9888495D02*
X11086395Y-9888495D01*
X11086395Y-9888495D02*
X11067347Y-9878971D01*
X11067347Y-9878971D02*
X11057823Y-9869447D01*
X11057823Y-9869447D02*
X11048300Y-9850400D01*
X11048300Y-9850400D02*
X11038776Y-9812305D01*
X11038776Y-9812305D02*
X11038776Y-9764685D01*
X11038776Y-9764685D02*
X11048300Y-9726590D01*
X11048300Y-9726590D02*
X11057823Y-9707543D01*
X11057823Y-9707543D02*
X11067347Y-9698019D01*
X11067347Y-9698019D02*
X11086395Y-9688495D01*
X11238776Y-9888495D02*
X11238776Y-9755162D01*
X11238776Y-9774209D02*
X11248300Y-9764685D01*
X11248300Y-9764685D02*
X11267347Y-9755162D01*
X11267347Y-9755162D02*
X11295919Y-9755162D01*
X11295919Y-9755162D02*
X11314966Y-9764685D01*
X11314966Y-9764685D02*
X11324490Y-9783733D01*
X11324490Y-9783733D02*
X11324490Y-9888495D01*
X11324490Y-9783733D02*
X11334014Y-9764685D01*
X11334014Y-9764685D02*
X11353061Y-9755162D01*
X11353061Y-9755162D02*
X11381633Y-9755162D01*
X11381633Y-9755162D02*
X11400681Y-9764685D01*
X11400681Y-9764685D02*
X11410204Y-9783733D01*
X11410204Y-9783733D02*
X11410204Y-9888495D01*
X11505442Y-9888495D02*
X11505442Y-9755162D01*
X11505442Y-9774209D02*
X11514966Y-9764685D01*
X11514966Y-9764685D02*
X11534014Y-9755162D01*
X11534014Y-9755162D02*
X11562585Y-9755162D01*
X11562585Y-9755162D02*
X11581633Y-9764685D01*
X11581633Y-9764685D02*
X11591157Y-9783733D01*
X11591157Y-9783733D02*
X11591157Y-9888495D01*
X11591157Y-9783733D02*
X11600681Y-9764685D01*
X11600681Y-9764685D02*
X11619728Y-9755162D01*
X11619728Y-9755162D02*
X11648300Y-9755162D01*
X11648300Y-9755162D02*
X11667347Y-9764685D01*
X11667347Y-9764685D02*
X11676871Y-9783733D01*
X11676871Y-9783733D02*
X11676871Y-9888495D01*
X12067347Y-9678971D02*
X11895919Y-9936114D01*
X12324490Y-9688495D02*
X12343538Y-9688495D01*
X12343538Y-9688495D02*
X12362585Y-9698019D01*
X12362585Y-9698019D02*
X12372109Y-9707543D01*
X12372109Y-9707543D02*
X12381633Y-9726590D01*
X12381633Y-9726590D02*
X12391157Y-9764685D01*
X12391157Y-9764685D02*
X12391157Y-9812305D01*
X12391157Y-9812305D02*
X12381633Y-9850400D01*
X12381633Y-9850400D02*
X12372109Y-9869447D01*
X12372109Y-9869447D02*
X12362585Y-9878971D01*
X12362585Y-9878971D02*
X12343538Y-9888495D01*
X12343538Y-9888495D02*
X12324490Y-9888495D01*
X12324490Y-9888495D02*
X12305443Y-9878971D01*
X12305443Y-9878971D02*
X12295919Y-9869447D01*
X12295919Y-9869447D02*
X12286395Y-9850400D01*
X12286395Y-9850400D02*
X12276871Y-9812305D01*
X12276871Y-9812305D02*
X12276871Y-9764685D01*
X12276871Y-9764685D02*
X12286395Y-9726590D01*
X12286395Y-9726590D02*
X12295919Y-9707543D01*
X12295919Y-9707543D02*
X12305443Y-9698019D01*
X12305443Y-9698019D02*
X12324490Y-9688495D01*
X12476871Y-9869447D02*
X12486395Y-9878971D01*
X12486395Y-9878971D02*
X12476871Y-9888495D01*
X12476871Y-9888495D02*
X12467347Y-9878971D01*
X12467347Y-9878971D02*
X12476871Y-9869447D01*
X12476871Y-9869447D02*
X12476871Y-9888495D01*
X12610204Y-9688495D02*
X12629252Y-9688495D01*
X12629252Y-9688495D02*
X12648300Y-9698019D01*
X12648300Y-9698019D02*
X12657824Y-9707543D01*
X12657824Y-9707543D02*
X12667347Y-9726590D01*
X12667347Y-9726590D02*
X12676871Y-9764685D01*
X12676871Y-9764685D02*
X12676871Y-9812305D01*
X12676871Y-9812305D02*
X12667347Y-9850400D01*
X12667347Y-9850400D02*
X12657824Y-9869447D01*
X12657824Y-9869447D02*
X12648300Y-9878971D01*
X12648300Y-9878971D02*
X12629252Y-9888495D01*
X12629252Y-9888495D02*
X12610204Y-9888495D01*
X12610204Y-9888495D02*
X12591157Y-9878971D01*
X12591157Y-9878971D02*
X12581633Y-9869447D01*
X12581633Y-9869447D02*
X12572109Y-9850400D01*
X12572109Y-9850400D02*
X12562585Y-9812305D01*
X12562585Y-9812305D02*
X12562585Y-9764685D01*
X12562585Y-9764685D02*
X12572109Y-9726590D01*
X12572109Y-9726590D02*
X12581633Y-9707543D01*
X12581633Y-9707543D02*
X12591157Y-9698019D01*
X12591157Y-9698019D02*
X12610204Y-9688495D01*
X12743538Y-9688495D02*
X12867347Y-9688495D01*
X12867347Y-9688495D02*
X12800681Y-9764685D01*
X12800681Y-9764685D02*
X12829252Y-9764685D01*
X12829252Y-9764685D02*
X12848300Y-9774209D01*
X12848300Y-9774209D02*
X12857824Y-9783733D01*
X12857824Y-9783733D02*
X12867347Y-9802781D01*
X12867347Y-9802781D02*
X12867347Y-9850400D01*
X12867347Y-9850400D02*
X12857824Y-9869447D01*
X12857824Y-9869447D02*
X12848300Y-9878971D01*
X12848300Y-9878971D02*
X12829252Y-9888495D01*
X12829252Y-9888495D02*
X12772109Y-9888495D01*
X12772109Y-9888495D02*
X12753062Y-9878971D01*
X12753062Y-9878971D02*
X12743538Y-9869447D01*
X13048300Y-9688495D02*
X12953062Y-9688495D01*
X12953062Y-9688495D02*
X12943538Y-9783733D01*
X12943538Y-9783733D02*
X12953062Y-9774209D01*
X12953062Y-9774209D02*
X12972109Y-9764685D01*
X12972109Y-9764685D02*
X13019728Y-9764685D01*
X13019728Y-9764685D02*
X13038776Y-9774209D01*
X13038776Y-9774209D02*
X13048300Y-9783733D01*
X13048300Y-9783733D02*
X13057824Y-9802781D01*
X13057824Y-9802781D02*
X13057824Y-9850400D01*
X13057824Y-9850400D02*
X13048300Y-9869447D01*
X13048300Y-9869447D02*
X13038776Y-9878971D01*
X13038776Y-9878971D02*
X13019728Y-9888495D01*
X13019728Y-9888495D02*
X12972109Y-9888495D01*
X12972109Y-9888495D02*
X12953062Y-9878971D01*
X12953062Y-9878971D02*
X12943538Y-9869447D01*
X13229252Y-9755162D02*
X13229252Y-9888495D01*
X13181633Y-9678971D02*
X13134014Y-9821828D01*
X13134014Y-9821828D02*
X13257824Y-9821828D01*
X13324490Y-9688495D02*
X13324490Y-9726590D01*
X13400681Y-9688495D02*
X13400681Y-9726590D01*
X13695919Y-9964685D02*
X13686395Y-9955162D01*
X13686395Y-9955162D02*
X13667347Y-9926590D01*
X13667347Y-9926590D02*
X13657824Y-9907543D01*
X13657824Y-9907543D02*
X13648300Y-9878971D01*
X13648300Y-9878971D02*
X13638776Y-9831352D01*
X13638776Y-9831352D02*
X13638776Y-9793257D01*
X13638776Y-9793257D02*
X13648300Y-9745638D01*
X13648300Y-9745638D02*
X13657824Y-9717066D01*
X13657824Y-9717066D02*
X13667347Y-9698019D01*
X13667347Y-9698019D02*
X13686395Y-9669447D01*
X13686395Y-9669447D02*
X13695919Y-9659924D01*
X13857824Y-9688495D02*
X13819728Y-9688495D01*
X13819728Y-9688495D02*
X13800681Y-9698019D01*
X13800681Y-9698019D02*
X13791157Y-9707543D01*
X13791157Y-9707543D02*
X13772109Y-9736114D01*
X13772109Y-9736114D02*
X13762586Y-9774209D01*
X13762586Y-9774209D02*
X13762586Y-9850400D01*
X13762586Y-9850400D02*
X13772109Y-9869447D01*
X13772109Y-9869447D02*
X13781633Y-9878971D01*
X13781633Y-9878971D02*
X13800681Y-9888495D01*
X13800681Y-9888495D02*
X13838776Y-9888495D01*
X13838776Y-9888495D02*
X13857824Y-9878971D01*
X13857824Y-9878971D02*
X13867347Y-9869447D01*
X13867347Y-9869447D02*
X13876871Y-9850400D01*
X13876871Y-9850400D02*
X13876871Y-9802781D01*
X13876871Y-9802781D02*
X13867347Y-9783733D01*
X13867347Y-9783733D02*
X13857824Y-9774209D01*
X13857824Y-9774209D02*
X13838776Y-9764685D01*
X13838776Y-9764685D02*
X13800681Y-9764685D01*
X13800681Y-9764685D02*
X13781633Y-9774209D01*
X13781633Y-9774209D02*
X13772109Y-9783733D01*
X13772109Y-9783733D02*
X13762586Y-9802781D01*
X14114967Y-9888495D02*
X14114967Y-9688495D01*
X14200681Y-9888495D02*
X14200681Y-9783733D01*
X14200681Y-9783733D02*
X14191157Y-9764685D01*
X14191157Y-9764685D02*
X14172109Y-9755162D01*
X14172109Y-9755162D02*
X14143538Y-9755162D01*
X14143538Y-9755162D02*
X14124490Y-9764685D01*
X14124490Y-9764685D02*
X14114967Y-9774209D01*
X14324490Y-9888495D02*
X14305443Y-9878971D01*
X14305443Y-9878971D02*
X14295919Y-9869447D01*
X14295919Y-9869447D02*
X14286395Y-9850400D01*
X14286395Y-9850400D02*
X14286395Y-9793257D01*
X14286395Y-9793257D02*
X14295919Y-9774209D01*
X14295919Y-9774209D02*
X14305443Y-9764685D01*
X14305443Y-9764685D02*
X14324490Y-9755162D01*
X14324490Y-9755162D02*
X14353062Y-9755162D01*
X14353062Y-9755162D02*
X14372109Y-9764685D01*
X14372109Y-9764685D02*
X14381633Y-9774209D01*
X14381633Y-9774209D02*
X14391157Y-9793257D01*
X14391157Y-9793257D02*
X14391157Y-9850400D01*
X14391157Y-9850400D02*
X14381633Y-9869447D01*
X14381633Y-9869447D02*
X14372109Y-9878971D01*
X14372109Y-9878971D02*
X14353062Y-9888495D01*
X14353062Y-9888495D02*
X14324490Y-9888495D01*
X14505443Y-9888495D02*
X14486395Y-9878971D01*
X14486395Y-9878971D02*
X14476871Y-9859924D01*
X14476871Y-9859924D02*
X14476871Y-9688495D01*
X14657824Y-9878971D02*
X14638776Y-9888495D01*
X14638776Y-9888495D02*
X14600681Y-9888495D01*
X14600681Y-9888495D02*
X14581633Y-9878971D01*
X14581633Y-9878971D02*
X14572109Y-9859924D01*
X14572109Y-9859924D02*
X14572109Y-9783733D01*
X14572109Y-9783733D02*
X14581633Y-9764685D01*
X14581633Y-9764685D02*
X14600681Y-9755162D01*
X14600681Y-9755162D02*
X14638776Y-9755162D01*
X14638776Y-9755162D02*
X14657824Y-9764685D01*
X14657824Y-9764685D02*
X14667348Y-9783733D01*
X14667348Y-9783733D02*
X14667348Y-9802781D01*
X14667348Y-9802781D02*
X14572109Y-9821828D01*
X14743538Y-9878971D02*
X14762586Y-9888495D01*
X14762586Y-9888495D02*
X14800681Y-9888495D01*
X14800681Y-9888495D02*
X14819729Y-9878971D01*
X14819729Y-9878971D02*
X14829252Y-9859924D01*
X14829252Y-9859924D02*
X14829252Y-9850400D01*
X14829252Y-9850400D02*
X14819729Y-9831352D01*
X14819729Y-9831352D02*
X14800681Y-9821828D01*
X14800681Y-9821828D02*
X14772109Y-9821828D01*
X14772109Y-9821828D02*
X14753062Y-9812305D01*
X14753062Y-9812305D02*
X14743538Y-9793257D01*
X14743538Y-9793257D02*
X14743538Y-9783733D01*
X14743538Y-9783733D02*
X14753062Y-9764685D01*
X14753062Y-9764685D02*
X14772109Y-9755162D01*
X14772109Y-9755162D02*
X14800681Y-9755162D01*
X14800681Y-9755162D02*
X14819729Y-9764685D01*
X14895919Y-9964685D02*
X14905443Y-9955162D01*
X14905443Y-9955162D02*
X14924490Y-9926590D01*
X14924490Y-9926590D02*
X14934014Y-9907543D01*
X14934014Y-9907543D02*
X14943538Y-9878971D01*
X14943538Y-9878971D02*
X14953062Y-9831352D01*
X14953062Y-9831352D02*
X14953062Y-9793257D01*
X14953062Y-9793257D02*
X14943538Y-9745638D01*
X14943538Y-9745638D02*
X14934014Y-9717066D01*
X14934014Y-9717066D02*
X14924490Y-9698019D01*
X14924490Y-9698019D02*
X14905443Y-9669447D01*
X14905443Y-9669447D02*
X14895919Y-9659924D01*
D13*
X10065856Y-10006011D02*
X10065856Y-10116011D01*
X10010856Y-10061011D02*
X10120856Y-10061011D01*
D11*
X10486395Y-10152495D02*
X10372109Y-10152495D01*
X10429252Y-10152495D02*
X10429252Y-9952495D01*
X10429252Y-9952495D02*
X10410204Y-9981066D01*
X10410204Y-9981066D02*
X10391157Y-10000114D01*
X10391157Y-10000114D02*
X10372109Y-10009638D01*
X10572109Y-10133447D02*
X10581633Y-10142971D01*
X10581633Y-10142971D02*
X10572109Y-10152495D01*
X10572109Y-10152495D02*
X10562585Y-10142971D01*
X10562585Y-10142971D02*
X10572109Y-10133447D01*
X10572109Y-10133447D02*
X10572109Y-10152495D01*
X10772109Y-10152495D02*
X10657823Y-10152495D01*
X10714966Y-10152495D02*
X10714966Y-9952495D01*
X10714966Y-9952495D02*
X10695919Y-9981066D01*
X10695919Y-9981066D02*
X10676871Y-10000114D01*
X10676871Y-10000114D02*
X10657823Y-10009638D01*
X10895919Y-9952495D02*
X10914966Y-9952495D01*
X10914966Y-9952495D02*
X10934014Y-9962019D01*
X10934014Y-9962019D02*
X10943538Y-9971543D01*
X10943538Y-9971543D02*
X10953062Y-9990590D01*
X10953062Y-9990590D02*
X10962585Y-10028685D01*
X10962585Y-10028685D02*
X10962585Y-10076305D01*
X10962585Y-10076305D02*
X10953062Y-10114400D01*
X10953062Y-10114400D02*
X10943538Y-10133447D01*
X10943538Y-10133447D02*
X10934014Y-10142971D01*
X10934014Y-10142971D02*
X10914966Y-10152495D01*
X10914966Y-10152495D02*
X10895919Y-10152495D01*
X10895919Y-10152495D02*
X10876871Y-10142971D01*
X10876871Y-10142971D02*
X10867347Y-10133447D01*
X10867347Y-10133447D02*
X10857823Y-10114400D01*
X10857823Y-10114400D02*
X10848300Y-10076305D01*
X10848300Y-10076305D02*
X10848300Y-10028685D01*
X10848300Y-10028685D02*
X10857823Y-9990590D01*
X10857823Y-9990590D02*
X10867347Y-9971543D01*
X10867347Y-9971543D02*
X10876871Y-9962019D01*
X10876871Y-9962019D02*
X10895919Y-9952495D01*
X11086395Y-9952495D02*
X11105443Y-9952495D01*
X11105443Y-9952495D02*
X11124490Y-9962019D01*
X11124490Y-9962019D02*
X11134014Y-9971543D01*
X11134014Y-9971543D02*
X11143538Y-9990590D01*
X11143538Y-9990590D02*
X11153062Y-10028685D01*
X11153062Y-10028685D02*
X11153062Y-10076305D01*
X11153062Y-10076305D02*
X11143538Y-10114400D01*
X11143538Y-10114400D02*
X11134014Y-10133447D01*
X11134014Y-10133447D02*
X11124490Y-10142971D01*
X11124490Y-10142971D02*
X11105443Y-10152495D01*
X11105443Y-10152495D02*
X11086395Y-10152495D01*
X11086395Y-10152495D02*
X11067347Y-10142971D01*
X11067347Y-10142971D02*
X11057823Y-10133447D01*
X11057823Y-10133447D02*
X11048300Y-10114400D01*
X11048300Y-10114400D02*
X11038776Y-10076305D01*
X11038776Y-10076305D02*
X11038776Y-10028685D01*
X11038776Y-10028685D02*
X11048300Y-9990590D01*
X11048300Y-9990590D02*
X11057823Y-9971543D01*
X11057823Y-9971543D02*
X11067347Y-9962019D01*
X11067347Y-9962019D02*
X11086395Y-9952495D01*
X11238776Y-10152495D02*
X11238776Y-10019162D01*
X11238776Y-10038209D02*
X11248300Y-10028685D01*
X11248300Y-10028685D02*
X11267347Y-10019162D01*
X11267347Y-10019162D02*
X11295919Y-10019162D01*
X11295919Y-10019162D02*
X11314966Y-10028685D01*
X11314966Y-10028685D02*
X11324490Y-10047733D01*
X11324490Y-10047733D02*
X11324490Y-10152495D01*
X11324490Y-10047733D02*
X11334014Y-10028685D01*
X11334014Y-10028685D02*
X11353061Y-10019162D01*
X11353061Y-10019162D02*
X11381633Y-10019162D01*
X11381633Y-10019162D02*
X11400681Y-10028685D01*
X11400681Y-10028685D02*
X11410204Y-10047733D01*
X11410204Y-10047733D02*
X11410204Y-10152495D01*
X11505442Y-10152495D02*
X11505442Y-10019162D01*
X11505442Y-10038209D02*
X11514966Y-10028685D01*
X11514966Y-10028685D02*
X11534014Y-10019162D01*
X11534014Y-10019162D02*
X11562585Y-10019162D01*
X11562585Y-10019162D02*
X11581633Y-10028685D01*
X11581633Y-10028685D02*
X11591157Y-10047733D01*
X11591157Y-10047733D02*
X11591157Y-10152495D01*
X11591157Y-10047733D02*
X11600681Y-10028685D01*
X11600681Y-10028685D02*
X11619728Y-10019162D01*
X11619728Y-10019162D02*
X11648300Y-10019162D01*
X11648300Y-10019162D02*
X11667347Y-10028685D01*
X11667347Y-10028685D02*
X11676871Y-10047733D01*
X11676871Y-10047733D02*
X11676871Y-10152495D01*
X12067347Y-9942971D02*
X11895919Y-10200114D01*
X12324490Y-9952495D02*
X12343538Y-9952495D01*
X12343538Y-9952495D02*
X12362585Y-9962019D01*
X12362585Y-9962019D02*
X12372109Y-9971543D01*
X12372109Y-9971543D02*
X12381633Y-9990590D01*
X12381633Y-9990590D02*
X12391157Y-10028685D01*
X12391157Y-10028685D02*
X12391157Y-10076305D01*
X12391157Y-10076305D02*
X12381633Y-10114400D01*
X12381633Y-10114400D02*
X12372109Y-10133447D01*
X12372109Y-10133447D02*
X12362585Y-10142971D01*
X12362585Y-10142971D02*
X12343538Y-10152495D01*
X12343538Y-10152495D02*
X12324490Y-10152495D01*
X12324490Y-10152495D02*
X12305443Y-10142971D01*
X12305443Y-10142971D02*
X12295919Y-10133447D01*
X12295919Y-10133447D02*
X12286395Y-10114400D01*
X12286395Y-10114400D02*
X12276871Y-10076305D01*
X12276871Y-10076305D02*
X12276871Y-10028685D01*
X12276871Y-10028685D02*
X12286395Y-9990590D01*
X12286395Y-9990590D02*
X12295919Y-9971543D01*
X12295919Y-9971543D02*
X12305443Y-9962019D01*
X12305443Y-9962019D02*
X12324490Y-9952495D01*
X12476871Y-10133447D02*
X12486395Y-10142971D01*
X12486395Y-10142971D02*
X12476871Y-10152495D01*
X12476871Y-10152495D02*
X12467347Y-10142971D01*
X12467347Y-10142971D02*
X12476871Y-10133447D01*
X12476871Y-10133447D02*
X12476871Y-10152495D01*
X12610204Y-9952495D02*
X12629252Y-9952495D01*
X12629252Y-9952495D02*
X12648300Y-9962019D01*
X12648300Y-9962019D02*
X12657824Y-9971543D01*
X12657824Y-9971543D02*
X12667347Y-9990590D01*
X12667347Y-9990590D02*
X12676871Y-10028685D01*
X12676871Y-10028685D02*
X12676871Y-10076305D01*
X12676871Y-10076305D02*
X12667347Y-10114400D01*
X12667347Y-10114400D02*
X12657824Y-10133447D01*
X12657824Y-10133447D02*
X12648300Y-10142971D01*
X12648300Y-10142971D02*
X12629252Y-10152495D01*
X12629252Y-10152495D02*
X12610204Y-10152495D01*
X12610204Y-10152495D02*
X12591157Y-10142971D01*
X12591157Y-10142971D02*
X12581633Y-10133447D01*
X12581633Y-10133447D02*
X12572109Y-10114400D01*
X12572109Y-10114400D02*
X12562585Y-10076305D01*
X12562585Y-10076305D02*
X12562585Y-10028685D01*
X12562585Y-10028685D02*
X12572109Y-9990590D01*
X12572109Y-9990590D02*
X12581633Y-9971543D01*
X12581633Y-9971543D02*
X12591157Y-9962019D01*
X12591157Y-9962019D02*
X12610204Y-9952495D01*
X12848300Y-10019162D02*
X12848300Y-10152495D01*
X12800681Y-9942971D02*
X12753062Y-10085828D01*
X12753062Y-10085828D02*
X12876871Y-10085828D01*
X12934014Y-9952495D02*
X13057824Y-9952495D01*
X13057824Y-9952495D02*
X12991157Y-10028685D01*
X12991157Y-10028685D02*
X13019728Y-10028685D01*
X13019728Y-10028685D02*
X13038776Y-10038209D01*
X13038776Y-10038209D02*
X13048300Y-10047733D01*
X13048300Y-10047733D02*
X13057824Y-10066781D01*
X13057824Y-10066781D02*
X13057824Y-10114400D01*
X13057824Y-10114400D02*
X13048300Y-10133447D01*
X13048300Y-10133447D02*
X13038776Y-10142971D01*
X13038776Y-10142971D02*
X13019728Y-10152495D01*
X13019728Y-10152495D02*
X12962585Y-10152495D01*
X12962585Y-10152495D02*
X12943538Y-10142971D01*
X12943538Y-10142971D02*
X12934014Y-10133447D01*
X13124490Y-9952495D02*
X13248300Y-9952495D01*
X13248300Y-9952495D02*
X13181633Y-10028685D01*
X13181633Y-10028685D02*
X13210205Y-10028685D01*
X13210205Y-10028685D02*
X13229252Y-10038209D01*
X13229252Y-10038209D02*
X13238776Y-10047733D01*
X13238776Y-10047733D02*
X13248300Y-10066781D01*
X13248300Y-10066781D02*
X13248300Y-10114400D01*
X13248300Y-10114400D02*
X13238776Y-10133447D01*
X13238776Y-10133447D02*
X13229252Y-10142971D01*
X13229252Y-10142971D02*
X13210205Y-10152495D01*
X13210205Y-10152495D02*
X13153062Y-10152495D01*
X13153062Y-10152495D02*
X13134014Y-10142971D01*
X13134014Y-10142971D02*
X13124490Y-10133447D01*
X13324490Y-9952495D02*
X13324490Y-9990590D01*
X13400681Y-9952495D02*
X13400681Y-9990590D01*
X13695919Y-10228685D02*
X13686395Y-10219162D01*
X13686395Y-10219162D02*
X13667347Y-10190590D01*
X13667347Y-10190590D02*
X13657824Y-10171543D01*
X13657824Y-10171543D02*
X13648300Y-10142971D01*
X13648300Y-10142971D02*
X13638776Y-10095352D01*
X13638776Y-10095352D02*
X13638776Y-10057257D01*
X13638776Y-10057257D02*
X13648300Y-10009638D01*
X13648300Y-10009638D02*
X13657824Y-9981066D01*
X13657824Y-9981066D02*
X13667347Y-9962019D01*
X13667347Y-9962019D02*
X13686395Y-9933447D01*
X13686395Y-9933447D02*
X13695919Y-9923924D01*
X13876871Y-10152495D02*
X13762586Y-10152495D01*
X13819728Y-10152495D02*
X13819728Y-9952495D01*
X13819728Y-9952495D02*
X13800681Y-9981066D01*
X13800681Y-9981066D02*
X13781633Y-10000114D01*
X13781633Y-10000114D02*
X13762586Y-10009638D01*
X13953062Y-9971543D02*
X13962586Y-9962019D01*
X13962586Y-9962019D02*
X13981633Y-9952495D01*
X13981633Y-9952495D02*
X14029252Y-9952495D01*
X14029252Y-9952495D02*
X14048300Y-9962019D01*
X14048300Y-9962019D02*
X14057824Y-9971543D01*
X14057824Y-9971543D02*
X14067347Y-9990590D01*
X14067347Y-9990590D02*
X14067347Y-10009638D01*
X14067347Y-10009638D02*
X14057824Y-10038209D01*
X14057824Y-10038209D02*
X13943538Y-10152495D01*
X13943538Y-10152495D02*
X14067347Y-10152495D01*
X14305443Y-10152495D02*
X14305443Y-9952495D01*
X14391157Y-10152495D02*
X14391157Y-10047733D01*
X14391157Y-10047733D02*
X14381633Y-10028685D01*
X14381633Y-10028685D02*
X14362586Y-10019162D01*
X14362586Y-10019162D02*
X14334014Y-10019162D01*
X14334014Y-10019162D02*
X14314967Y-10028685D01*
X14314967Y-10028685D02*
X14305443Y-10038209D01*
X14514967Y-10152495D02*
X14495919Y-10142971D01*
X14495919Y-10142971D02*
X14486395Y-10133447D01*
X14486395Y-10133447D02*
X14476871Y-10114400D01*
X14476871Y-10114400D02*
X14476871Y-10057257D01*
X14476871Y-10057257D02*
X14486395Y-10038209D01*
X14486395Y-10038209D02*
X14495919Y-10028685D01*
X14495919Y-10028685D02*
X14514967Y-10019162D01*
X14514967Y-10019162D02*
X14543538Y-10019162D01*
X14543538Y-10019162D02*
X14562586Y-10028685D01*
X14562586Y-10028685D02*
X14572109Y-10038209D01*
X14572109Y-10038209D02*
X14581633Y-10057257D01*
X14581633Y-10057257D02*
X14581633Y-10114400D01*
X14581633Y-10114400D02*
X14572109Y-10133447D01*
X14572109Y-10133447D02*
X14562586Y-10142971D01*
X14562586Y-10142971D02*
X14543538Y-10152495D01*
X14543538Y-10152495D02*
X14514967Y-10152495D01*
X14695919Y-10152495D02*
X14676871Y-10142971D01*
X14676871Y-10142971D02*
X14667348Y-10123924D01*
X14667348Y-10123924D02*
X14667348Y-9952495D01*
X14848300Y-10142971D02*
X14829252Y-10152495D01*
X14829252Y-10152495D02*
X14791157Y-10152495D01*
X14791157Y-10152495D02*
X14772109Y-10142971D01*
X14772109Y-10142971D02*
X14762586Y-10123924D01*
X14762586Y-10123924D02*
X14762586Y-10047733D01*
X14762586Y-10047733D02*
X14772109Y-10028685D01*
X14772109Y-10028685D02*
X14791157Y-10019162D01*
X14791157Y-10019162D02*
X14829252Y-10019162D01*
X14829252Y-10019162D02*
X14848300Y-10028685D01*
X14848300Y-10028685D02*
X14857824Y-10047733D01*
X14857824Y-10047733D02*
X14857824Y-10066781D01*
X14857824Y-10066781D02*
X14762586Y-10085828D01*
X14934014Y-10142971D02*
X14953062Y-10152495D01*
X14953062Y-10152495D02*
X14991157Y-10152495D01*
X14991157Y-10152495D02*
X15010205Y-10142971D01*
X15010205Y-10142971D02*
X15019729Y-10123924D01*
X15019729Y-10123924D02*
X15019729Y-10114400D01*
X15019729Y-10114400D02*
X15010205Y-10095352D01*
X15010205Y-10095352D02*
X14991157Y-10085828D01*
X14991157Y-10085828D02*
X14962586Y-10085828D01*
X14962586Y-10085828D02*
X14943538Y-10076305D01*
X14943538Y-10076305D02*
X14934014Y-10057257D01*
X14934014Y-10057257D02*
X14934014Y-10047733D01*
X14934014Y-10047733D02*
X14943538Y-10028685D01*
X14943538Y-10028685D02*
X14962586Y-10019162D01*
X14962586Y-10019162D02*
X14991157Y-10019162D01*
X14991157Y-10019162D02*
X15010205Y-10028685D01*
X15086395Y-10228685D02*
X15095919Y-10219162D01*
X15095919Y-10219162D02*
X15114967Y-10190590D01*
X15114967Y-10190590D02*
X15124490Y-10171543D01*
X15124490Y-10171543D02*
X15134014Y-10142971D01*
X15134014Y-10142971D02*
X15143538Y-10095352D01*
X15143538Y-10095352D02*
X15143538Y-10057257D01*
X15143538Y-10057257D02*
X15134014Y-10009638D01*
X15134014Y-10009638D02*
X15124490Y-9981066D01*
X15124490Y-9981066D02*
X15114967Y-9962019D01*
X15114967Y-9962019D02*
X15095919Y-9933447D01*
X15095919Y-9933447D02*
X15086395Y-9923924D01*
X10091568Y-10395723D02*
X10091568Y-10254300D01*
X9950145Y-10254300D01*
X9950145Y-10395723D01*
X10091568Y-10395723D01*
X10476871Y-10216495D02*
X10381633Y-10216495D01*
X10381633Y-10216495D02*
X10372109Y-10311733D01*
X10372109Y-10311733D02*
X10381633Y-10302209D01*
X10381633Y-10302209D02*
X10400681Y-10292685D01*
X10400681Y-10292685D02*
X10448300Y-10292685D01*
X10448300Y-10292685D02*
X10467347Y-10302209D01*
X10467347Y-10302209D02*
X10476871Y-10311733D01*
X10476871Y-10311733D02*
X10486395Y-10330781D01*
X10486395Y-10330781D02*
X10486395Y-10378400D01*
X10486395Y-10378400D02*
X10476871Y-10397447D01*
X10476871Y-10397447D02*
X10467347Y-10406971D01*
X10467347Y-10406971D02*
X10448300Y-10416495D01*
X10448300Y-10416495D02*
X10400681Y-10416495D01*
X10400681Y-10416495D02*
X10381633Y-10406971D01*
X10381633Y-10406971D02*
X10372109Y-10397447D01*
X10572109Y-10397447D02*
X10581633Y-10406971D01*
X10581633Y-10406971D02*
X10572109Y-10416495D01*
X10572109Y-10416495D02*
X10562585Y-10406971D01*
X10562585Y-10406971D02*
X10572109Y-10397447D01*
X10572109Y-10397447D02*
X10572109Y-10416495D01*
X10705442Y-10216495D02*
X10724490Y-10216495D01*
X10724490Y-10216495D02*
X10743538Y-10226019D01*
X10743538Y-10226019D02*
X10753062Y-10235543D01*
X10753062Y-10235543D02*
X10762585Y-10254590D01*
X10762585Y-10254590D02*
X10772109Y-10292685D01*
X10772109Y-10292685D02*
X10772109Y-10340305D01*
X10772109Y-10340305D02*
X10762585Y-10378400D01*
X10762585Y-10378400D02*
X10753062Y-10397447D01*
X10753062Y-10397447D02*
X10743538Y-10406971D01*
X10743538Y-10406971D02*
X10724490Y-10416495D01*
X10724490Y-10416495D02*
X10705442Y-10416495D01*
X10705442Y-10416495D02*
X10686395Y-10406971D01*
X10686395Y-10406971D02*
X10676871Y-10397447D01*
X10676871Y-10397447D02*
X10667347Y-10378400D01*
X10667347Y-10378400D02*
X10657823Y-10340305D01*
X10657823Y-10340305D02*
X10657823Y-10292685D01*
X10657823Y-10292685D02*
X10667347Y-10254590D01*
X10667347Y-10254590D02*
X10676871Y-10235543D01*
X10676871Y-10235543D02*
X10686395Y-10226019D01*
X10686395Y-10226019D02*
X10705442Y-10216495D01*
X10895919Y-10216495D02*
X10914966Y-10216495D01*
X10914966Y-10216495D02*
X10934014Y-10226019D01*
X10934014Y-10226019D02*
X10943538Y-10235543D01*
X10943538Y-10235543D02*
X10953062Y-10254590D01*
X10953062Y-10254590D02*
X10962585Y-10292685D01*
X10962585Y-10292685D02*
X10962585Y-10340305D01*
X10962585Y-10340305D02*
X10953062Y-10378400D01*
X10953062Y-10378400D02*
X10943538Y-10397447D01*
X10943538Y-10397447D02*
X10934014Y-10406971D01*
X10934014Y-10406971D02*
X10914966Y-10416495D01*
X10914966Y-10416495D02*
X10895919Y-10416495D01*
X10895919Y-10416495D02*
X10876871Y-10406971D01*
X10876871Y-10406971D02*
X10867347Y-10397447D01*
X10867347Y-10397447D02*
X10857823Y-10378400D01*
X10857823Y-10378400D02*
X10848300Y-10340305D01*
X10848300Y-10340305D02*
X10848300Y-10292685D01*
X10848300Y-10292685D02*
X10857823Y-10254590D01*
X10857823Y-10254590D02*
X10867347Y-10235543D01*
X10867347Y-10235543D02*
X10876871Y-10226019D01*
X10876871Y-10226019D02*
X10895919Y-10216495D01*
X11086395Y-10216495D02*
X11105443Y-10216495D01*
X11105443Y-10216495D02*
X11124490Y-10226019D01*
X11124490Y-10226019D02*
X11134014Y-10235543D01*
X11134014Y-10235543D02*
X11143538Y-10254590D01*
X11143538Y-10254590D02*
X11153062Y-10292685D01*
X11153062Y-10292685D02*
X11153062Y-10340305D01*
X11153062Y-10340305D02*
X11143538Y-10378400D01*
X11143538Y-10378400D02*
X11134014Y-10397447D01*
X11134014Y-10397447D02*
X11124490Y-10406971D01*
X11124490Y-10406971D02*
X11105443Y-10416495D01*
X11105443Y-10416495D02*
X11086395Y-10416495D01*
X11086395Y-10416495D02*
X11067347Y-10406971D01*
X11067347Y-10406971D02*
X11057823Y-10397447D01*
X11057823Y-10397447D02*
X11048300Y-10378400D01*
X11048300Y-10378400D02*
X11038776Y-10340305D01*
X11038776Y-10340305D02*
X11038776Y-10292685D01*
X11038776Y-10292685D02*
X11048300Y-10254590D01*
X11048300Y-10254590D02*
X11057823Y-10235543D01*
X11057823Y-10235543D02*
X11067347Y-10226019D01*
X11067347Y-10226019D02*
X11086395Y-10216495D01*
X11238776Y-10416495D02*
X11238776Y-10283162D01*
X11238776Y-10302209D02*
X11248300Y-10292685D01*
X11248300Y-10292685D02*
X11267347Y-10283162D01*
X11267347Y-10283162D02*
X11295919Y-10283162D01*
X11295919Y-10283162D02*
X11314966Y-10292685D01*
X11314966Y-10292685D02*
X11324490Y-10311733D01*
X11324490Y-10311733D02*
X11324490Y-10416495D01*
X11324490Y-10311733D02*
X11334014Y-10292685D01*
X11334014Y-10292685D02*
X11353061Y-10283162D01*
X11353061Y-10283162D02*
X11381633Y-10283162D01*
X11381633Y-10283162D02*
X11400681Y-10292685D01*
X11400681Y-10292685D02*
X11410204Y-10311733D01*
X11410204Y-10311733D02*
X11410204Y-10416495D01*
X11505442Y-10416495D02*
X11505442Y-10283162D01*
X11505442Y-10302209D02*
X11514966Y-10292685D01*
X11514966Y-10292685D02*
X11534014Y-10283162D01*
X11534014Y-10283162D02*
X11562585Y-10283162D01*
X11562585Y-10283162D02*
X11581633Y-10292685D01*
X11581633Y-10292685D02*
X11591157Y-10311733D01*
X11591157Y-10311733D02*
X11591157Y-10416495D01*
X11591157Y-10311733D02*
X11600681Y-10292685D01*
X11600681Y-10292685D02*
X11619728Y-10283162D01*
X11619728Y-10283162D02*
X11648300Y-10283162D01*
X11648300Y-10283162D02*
X11667347Y-10292685D01*
X11667347Y-10292685D02*
X11676871Y-10311733D01*
X11676871Y-10311733D02*
X11676871Y-10416495D01*
X12067347Y-10206971D02*
X11895919Y-10464114D01*
X12324490Y-10216495D02*
X12343538Y-10216495D01*
X12343538Y-10216495D02*
X12362585Y-10226019D01*
X12362585Y-10226019D02*
X12372109Y-10235543D01*
X12372109Y-10235543D02*
X12381633Y-10254590D01*
X12381633Y-10254590D02*
X12391157Y-10292685D01*
X12391157Y-10292685D02*
X12391157Y-10340305D01*
X12391157Y-10340305D02*
X12381633Y-10378400D01*
X12381633Y-10378400D02*
X12372109Y-10397447D01*
X12372109Y-10397447D02*
X12362585Y-10406971D01*
X12362585Y-10406971D02*
X12343538Y-10416495D01*
X12343538Y-10416495D02*
X12324490Y-10416495D01*
X12324490Y-10416495D02*
X12305443Y-10406971D01*
X12305443Y-10406971D02*
X12295919Y-10397447D01*
X12295919Y-10397447D02*
X12286395Y-10378400D01*
X12286395Y-10378400D02*
X12276871Y-10340305D01*
X12276871Y-10340305D02*
X12276871Y-10292685D01*
X12276871Y-10292685D02*
X12286395Y-10254590D01*
X12286395Y-10254590D02*
X12295919Y-10235543D01*
X12295919Y-10235543D02*
X12305443Y-10226019D01*
X12305443Y-10226019D02*
X12324490Y-10216495D01*
X12476871Y-10397447D02*
X12486395Y-10406971D01*
X12486395Y-10406971D02*
X12476871Y-10416495D01*
X12476871Y-10416495D02*
X12467347Y-10406971D01*
X12467347Y-10406971D02*
X12476871Y-10397447D01*
X12476871Y-10397447D02*
X12476871Y-10416495D01*
X12676871Y-10416495D02*
X12562585Y-10416495D01*
X12619728Y-10416495D02*
X12619728Y-10216495D01*
X12619728Y-10216495D02*
X12600681Y-10245066D01*
X12600681Y-10245066D02*
X12581633Y-10264114D01*
X12581633Y-10264114D02*
X12562585Y-10273638D01*
X12772109Y-10416495D02*
X12810204Y-10416495D01*
X12810204Y-10416495D02*
X12829252Y-10406971D01*
X12829252Y-10406971D02*
X12838776Y-10397447D01*
X12838776Y-10397447D02*
X12857824Y-10368876D01*
X12857824Y-10368876D02*
X12867347Y-10330781D01*
X12867347Y-10330781D02*
X12867347Y-10254590D01*
X12867347Y-10254590D02*
X12857824Y-10235543D01*
X12857824Y-10235543D02*
X12848300Y-10226019D01*
X12848300Y-10226019D02*
X12829252Y-10216495D01*
X12829252Y-10216495D02*
X12791157Y-10216495D01*
X12791157Y-10216495D02*
X12772109Y-10226019D01*
X12772109Y-10226019D02*
X12762585Y-10235543D01*
X12762585Y-10235543D02*
X12753062Y-10254590D01*
X12753062Y-10254590D02*
X12753062Y-10302209D01*
X12753062Y-10302209D02*
X12762585Y-10321257D01*
X12762585Y-10321257D02*
X12772109Y-10330781D01*
X12772109Y-10330781D02*
X12791157Y-10340305D01*
X12791157Y-10340305D02*
X12829252Y-10340305D01*
X12829252Y-10340305D02*
X12848300Y-10330781D01*
X12848300Y-10330781D02*
X12857824Y-10321257D01*
X12857824Y-10321257D02*
X12867347Y-10302209D01*
X13038776Y-10216495D02*
X13000681Y-10216495D01*
X13000681Y-10216495D02*
X12981633Y-10226019D01*
X12981633Y-10226019D02*
X12972109Y-10235543D01*
X12972109Y-10235543D02*
X12953062Y-10264114D01*
X12953062Y-10264114D02*
X12943538Y-10302209D01*
X12943538Y-10302209D02*
X12943538Y-10378400D01*
X12943538Y-10378400D02*
X12953062Y-10397447D01*
X12953062Y-10397447D02*
X12962585Y-10406971D01*
X12962585Y-10406971D02*
X12981633Y-10416495D01*
X12981633Y-10416495D02*
X13019728Y-10416495D01*
X13019728Y-10416495D02*
X13038776Y-10406971D01*
X13038776Y-10406971D02*
X13048300Y-10397447D01*
X13048300Y-10397447D02*
X13057824Y-10378400D01*
X13057824Y-10378400D02*
X13057824Y-10330781D01*
X13057824Y-10330781D02*
X13048300Y-10311733D01*
X13048300Y-10311733D02*
X13038776Y-10302209D01*
X13038776Y-10302209D02*
X13019728Y-10292685D01*
X13019728Y-10292685D02*
X12981633Y-10292685D01*
X12981633Y-10292685D02*
X12962585Y-10302209D01*
X12962585Y-10302209D02*
X12953062Y-10311733D01*
X12953062Y-10311733D02*
X12943538Y-10330781D01*
X13153062Y-10416495D02*
X13191157Y-10416495D01*
X13191157Y-10416495D02*
X13210205Y-10406971D01*
X13210205Y-10406971D02*
X13219728Y-10397447D01*
X13219728Y-10397447D02*
X13238776Y-10368876D01*
X13238776Y-10368876D02*
X13248300Y-10330781D01*
X13248300Y-10330781D02*
X13248300Y-10254590D01*
X13248300Y-10254590D02*
X13238776Y-10235543D01*
X13238776Y-10235543D02*
X13229252Y-10226019D01*
X13229252Y-10226019D02*
X13210205Y-10216495D01*
X13210205Y-10216495D02*
X13172109Y-10216495D01*
X13172109Y-10216495D02*
X13153062Y-10226019D01*
X13153062Y-10226019D02*
X13143538Y-10235543D01*
X13143538Y-10235543D02*
X13134014Y-10254590D01*
X13134014Y-10254590D02*
X13134014Y-10302209D01*
X13134014Y-10302209D02*
X13143538Y-10321257D01*
X13143538Y-10321257D02*
X13153062Y-10330781D01*
X13153062Y-10330781D02*
X13172109Y-10340305D01*
X13172109Y-10340305D02*
X13210205Y-10340305D01*
X13210205Y-10340305D02*
X13229252Y-10330781D01*
X13229252Y-10330781D02*
X13238776Y-10321257D01*
X13238776Y-10321257D02*
X13248300Y-10302209D01*
X13324490Y-10216495D02*
X13324490Y-10254590D01*
X13400681Y-10216495D02*
X13400681Y-10254590D01*
X13695919Y-10492685D02*
X13686395Y-10483162D01*
X13686395Y-10483162D02*
X13667347Y-10454590D01*
X13667347Y-10454590D02*
X13657824Y-10435543D01*
X13657824Y-10435543D02*
X13648300Y-10406971D01*
X13648300Y-10406971D02*
X13638776Y-10359352D01*
X13638776Y-10359352D02*
X13638776Y-10321257D01*
X13638776Y-10321257D02*
X13648300Y-10273638D01*
X13648300Y-10273638D02*
X13657824Y-10245066D01*
X13657824Y-10245066D02*
X13667347Y-10226019D01*
X13667347Y-10226019D02*
X13686395Y-10197447D01*
X13686395Y-10197447D02*
X13695919Y-10187924D01*
X13876871Y-10416495D02*
X13762586Y-10416495D01*
X13819728Y-10416495D02*
X13819728Y-10216495D01*
X13819728Y-10216495D02*
X13800681Y-10245066D01*
X13800681Y-10245066D02*
X13781633Y-10264114D01*
X13781633Y-10264114D02*
X13762586Y-10273638D01*
X14114967Y-10416495D02*
X14114967Y-10216495D01*
X14200681Y-10416495D02*
X14200681Y-10311733D01*
X14200681Y-10311733D02*
X14191157Y-10292685D01*
X14191157Y-10292685D02*
X14172109Y-10283162D01*
X14172109Y-10283162D02*
X14143538Y-10283162D01*
X14143538Y-10283162D02*
X14124490Y-10292685D01*
X14124490Y-10292685D02*
X14114967Y-10302209D01*
X14324490Y-10416495D02*
X14305443Y-10406971D01*
X14305443Y-10406971D02*
X14295919Y-10397447D01*
X14295919Y-10397447D02*
X14286395Y-10378400D01*
X14286395Y-10378400D02*
X14286395Y-10321257D01*
X14286395Y-10321257D02*
X14295919Y-10302209D01*
X14295919Y-10302209D02*
X14305443Y-10292685D01*
X14305443Y-10292685D02*
X14324490Y-10283162D01*
X14324490Y-10283162D02*
X14353062Y-10283162D01*
X14353062Y-10283162D02*
X14372109Y-10292685D01*
X14372109Y-10292685D02*
X14381633Y-10302209D01*
X14381633Y-10302209D02*
X14391157Y-10321257D01*
X14391157Y-10321257D02*
X14391157Y-10378400D01*
X14391157Y-10378400D02*
X14381633Y-10397447D01*
X14381633Y-10397447D02*
X14372109Y-10406971D01*
X14372109Y-10406971D02*
X14353062Y-10416495D01*
X14353062Y-10416495D02*
X14324490Y-10416495D01*
X14505443Y-10416495D02*
X14486395Y-10406971D01*
X14486395Y-10406971D02*
X14476871Y-10387924D01*
X14476871Y-10387924D02*
X14476871Y-10216495D01*
X14657824Y-10406971D02*
X14638776Y-10416495D01*
X14638776Y-10416495D02*
X14600681Y-10416495D01*
X14600681Y-10416495D02*
X14581633Y-10406971D01*
X14581633Y-10406971D02*
X14572109Y-10387924D01*
X14572109Y-10387924D02*
X14572109Y-10311733D01*
X14572109Y-10311733D02*
X14581633Y-10292685D01*
X14581633Y-10292685D02*
X14600681Y-10283162D01*
X14600681Y-10283162D02*
X14638776Y-10283162D01*
X14638776Y-10283162D02*
X14657824Y-10292685D01*
X14657824Y-10292685D02*
X14667348Y-10311733D01*
X14667348Y-10311733D02*
X14667348Y-10330781D01*
X14667348Y-10330781D02*
X14572109Y-10349828D01*
X14734014Y-10492685D02*
X14743538Y-10483162D01*
X14743538Y-10483162D02*
X14762586Y-10454590D01*
X14762586Y-10454590D02*
X14772109Y-10435543D01*
X14772109Y-10435543D02*
X14781633Y-10406971D01*
X14781633Y-10406971D02*
X14791157Y-10359352D01*
X14791157Y-10359352D02*
X14791157Y-10321257D01*
X14791157Y-10321257D02*
X14781633Y-10273638D01*
X14781633Y-10273638D02*
X14772109Y-10245066D01*
X14772109Y-10245066D02*
X14762586Y-10226019D01*
X14762586Y-10226019D02*
X14743538Y-10197447D01*
X14743538Y-10197447D02*
X14734014Y-10187924D01*
M02*
