M48
; DRILL file {KiCad 9.0.2} date 2025-05-20T16:04:07-0600
; FORMAT={-:-/ absolute / metric / decimal}
; #@! TF.CreationDate,2025-05-20T16:04:07-06:00
; #@! TF.GenerationSoftware,Kicad,Pcbnew,9.0.2
; #@! TF.FileFunction,Plated,1,2,PTH
FMAT,2
METRIC
; #@! TA.AperFunction,Plated,PTH,ComponentDrill
T1C0.800
; #@! TA.AperFunction,Plated,PTH,ComponentDrill
T2C0.900
; #@! TA.AperFunction,Plated,PTH,ComponentDrill
T3C1.100
; #@! TA.AperFunction,Plated,PTH,ViaDrill
T4C5.000
%
G90
G05
T1
X142.24Y-81.28
X143.38Y-56.0
X143.38Y-68.5
X149.86Y-81.28
X151.0Y-56.0
X151.0Y-68.5
T2
X157.8Y-54.8
X157.8Y-57.34
X158.0Y-67.235
X158.0Y-69.775
X158.08Y-78.51
X158.08Y-81.05
T3
X132.75Y-53.75
X132.75Y-60.25
X133.0Y-65.5
X133.0Y-72.0
X133.0Y-77.0
X133.0Y-83.5
X137.25Y-53.75
X137.25Y-60.25
X137.5Y-65.5
X137.5Y-72.0
X137.5Y-77.0
X137.5Y-83.5
T4
X105.4Y-85.2
M30
