%TF.GenerationSoftware,KiCad,Pcbnew,9.0.2*%
%TF.CreationDate,2025-05-20T16:04:07-06:00*%
%TF.ProjectId,test_kicad,74657374-5f6b-4696-9361-642e6b696361,rev?*%
%TF.SameCoordinates,Original*%
%TF.FileFunction,Drillmap*%
%TF.FilePolarity,Positive*%
%FSLAX45Y45*%
G04 Gerber Fmt 4.5, Leading zero omitted, Abs format (unit mm)*
G04 Created by KiCad (PCBNEW 9.0.2) date 2025-05-20 16:04:07*
%MOMM*%
%LPD*%
G01*
G04 APERTURE LIST*
%ADD10C,0.050000*%
%ADD11C,0.200000*%
G04 APERTURE END LIST*
D10*
X10123356Y-5353936D02*
X10123356Y-8890511D01*
X10123356Y-8890511D02*
X16446456Y-8890000D01*
X16720000Y-5338201D02*
X16720912Y-8536157D01*
X10468165Y-5043506D02*
X16435459Y-5043000D01*
X10123356Y-5353935D02*
G75*
G02*
X10468165Y-5043471I333000J-23130D01*
G01*
X16720912Y-8536157D02*
G75*
G02*
X16446459Y-8890000I-338453J-20843D01*
G01*
X16435459Y-5043000D02*
G75*
G02*
X16720000Y-5338201I-27459J-311201D01*
G01*
D11*
X10381633Y-9204495D02*
X10381633Y-9004495D01*
X10381633Y-9004495D02*
X10429252Y-9004495D01*
X10429252Y-9004495D02*
X10457823Y-9014019D01*
X10457823Y-9014019D02*
X10476871Y-9033066D01*
X10476871Y-9033066D02*
X10486395Y-9052114D01*
X10486395Y-9052114D02*
X10495919Y-9090209D01*
X10495919Y-9090209D02*
X10495919Y-9118781D01*
X10495919Y-9118781D02*
X10486395Y-9156876D01*
X10486395Y-9156876D02*
X10476871Y-9175924D01*
X10476871Y-9175924D02*
X10457823Y-9194971D01*
X10457823Y-9194971D02*
X10429252Y-9204495D01*
X10429252Y-9204495D02*
X10381633Y-9204495D01*
X10581633Y-9204495D02*
X10581633Y-9071162D01*
X10581633Y-9109257D02*
X10591157Y-9090209D01*
X10591157Y-9090209D02*
X10600681Y-9080685D01*
X10600681Y-9080685D02*
X10619728Y-9071162D01*
X10619728Y-9071162D02*
X10638776Y-9071162D01*
X10705442Y-9204495D02*
X10705442Y-9071162D01*
X10705442Y-9004495D02*
X10695919Y-9014019D01*
X10695919Y-9014019D02*
X10705442Y-9023543D01*
X10705442Y-9023543D02*
X10714966Y-9014019D01*
X10714966Y-9014019D02*
X10705442Y-9004495D01*
X10705442Y-9004495D02*
X10705442Y-9023543D01*
X10829252Y-9204495D02*
X10810204Y-9194971D01*
X10810204Y-9194971D02*
X10800681Y-9175924D01*
X10800681Y-9175924D02*
X10800681Y-9004495D01*
X10934014Y-9204495D02*
X10914966Y-9194971D01*
X10914966Y-9194971D02*
X10905442Y-9175924D01*
X10905442Y-9175924D02*
X10905442Y-9004495D01*
X11162585Y-9204495D02*
X11162585Y-9004495D01*
X11162585Y-9004495D02*
X11229252Y-9147352D01*
X11229252Y-9147352D02*
X11295919Y-9004495D01*
X11295919Y-9004495D02*
X11295919Y-9204495D01*
X11476871Y-9204495D02*
X11476871Y-9099733D01*
X11476871Y-9099733D02*
X11467347Y-9080685D01*
X11467347Y-9080685D02*
X11448300Y-9071162D01*
X11448300Y-9071162D02*
X11410204Y-9071162D01*
X11410204Y-9071162D02*
X11391157Y-9080685D01*
X11476871Y-9194971D02*
X11457823Y-9204495D01*
X11457823Y-9204495D02*
X11410204Y-9204495D01*
X11410204Y-9204495D02*
X11391157Y-9194971D01*
X11391157Y-9194971D02*
X11381633Y-9175924D01*
X11381633Y-9175924D02*
X11381633Y-9156876D01*
X11381633Y-9156876D02*
X11391157Y-9137828D01*
X11391157Y-9137828D02*
X11410204Y-9128305D01*
X11410204Y-9128305D02*
X11457823Y-9128305D01*
X11457823Y-9128305D02*
X11476871Y-9118781D01*
X11572109Y-9071162D02*
X11572109Y-9271162D01*
X11572109Y-9080685D02*
X11591157Y-9071162D01*
X11591157Y-9071162D02*
X11629252Y-9071162D01*
X11629252Y-9071162D02*
X11648300Y-9080685D01*
X11648300Y-9080685D02*
X11657823Y-9090209D01*
X11657823Y-9090209D02*
X11667347Y-9109257D01*
X11667347Y-9109257D02*
X11667347Y-9166400D01*
X11667347Y-9166400D02*
X11657823Y-9185447D01*
X11657823Y-9185447D02*
X11648300Y-9194971D01*
X11648300Y-9194971D02*
X11629252Y-9204495D01*
X11629252Y-9204495D02*
X11591157Y-9204495D01*
X11591157Y-9204495D02*
X11572109Y-9194971D01*
X11753061Y-9185447D02*
X11762585Y-9194971D01*
X11762585Y-9194971D02*
X11753061Y-9204495D01*
X11753061Y-9204495D02*
X11743538Y-9194971D01*
X11743538Y-9194971D02*
X11753061Y-9185447D01*
X11753061Y-9185447D02*
X11753061Y-9204495D01*
X11753061Y-9080685D02*
X11762585Y-9090209D01*
X11762585Y-9090209D02*
X11753061Y-9099733D01*
X11753061Y-9099733D02*
X11743538Y-9090209D01*
X11743538Y-9090209D02*
X11753061Y-9080685D01*
X11753061Y-9080685D02*
X11753061Y-9099733D01*
M02*
