G04 #@! TF.GenerationSoftware,KiCad,Pcbnew,9.0.2*
G04 #@! TF.CreationDate,2025-05-20T16:04:07-06:00*
G04 #@! TF.ProjectId,test_kicad,74657374-5f6b-4696-9361-642e6b696361,rev?*
G04 #@! TF.SameCoordinates,Original*
G04 #@! TF.FileFunction,Legend,Bot*
G04 #@! TF.FilePolarity,Positive*
%FSLAX46Y46*%
G04 Gerber Fmt 4.6, Leading zero omitted, Abs format (unit mm)*
G04 Created by KiCad (PCBNEW 9.0.2) date 2025-05-20 16:04:07*
%MOMM*%
%LPD*%
G01*
G04 APERTURE LIST*
%ADD10C,0.000000*%
%ADD11C,1.800000*%
%ADD12R,1.800000X1.800000*%
%ADD13C,2.000000*%
%ADD14C,1.600000*%
G04 APERTURE END LIST*
D10*
G04 #@! TO.C,G\u002A\u002A\u002A*
G36*
X120726200Y-73609200D02*
G01*
X120726200Y-74015600D01*
X120319800Y-74015600D01*
X119913400Y-74015600D01*
X119913400Y-75234800D01*
X119913400Y-76454000D01*
X120319800Y-76454000D01*
X120726200Y-76454000D01*
X120726200Y-77266800D01*
X120726200Y-78079600D01*
X120319800Y-78079600D01*
X119913400Y-78079600D01*
X119913400Y-77673200D01*
X119913400Y-77266800D01*
X119507000Y-77266800D01*
X119100600Y-77266800D01*
X119100600Y-77673200D01*
X119100600Y-78079600D01*
X118694200Y-78079600D01*
X118287800Y-78079600D01*
X118287800Y-77266800D01*
X118287800Y-76454000D01*
X118694200Y-76454000D01*
X119100600Y-76454000D01*
X119100600Y-76047600D01*
X119100600Y-75641200D01*
X118694200Y-75641200D01*
X118287800Y-75641200D01*
X118287800Y-75234800D01*
X118287800Y-74828400D01*
X117475000Y-74828400D01*
X116662200Y-74828400D01*
X116662200Y-74422000D01*
X116662200Y-74015600D01*
X117475000Y-74015600D01*
X117881400Y-74015600D01*
X118287800Y-74015600D01*
X118287800Y-73202800D01*
X119100600Y-73202800D01*
X119100600Y-73609200D01*
X119100600Y-74015600D01*
X119507000Y-74015600D01*
X119913400Y-74015600D01*
X119913400Y-73609200D01*
X119913400Y-73202800D01*
X119507000Y-73202800D01*
X119100600Y-73202800D01*
X118287800Y-73202800D01*
X118287800Y-72796400D01*
X118287800Y-71577200D01*
X117881400Y-71577200D01*
X117475000Y-71577200D01*
X117475000Y-72796400D01*
X117475000Y-74015600D01*
X116662200Y-74015600D01*
X116255800Y-74015600D01*
X115849400Y-74015600D01*
X115849400Y-73609200D01*
X115849400Y-73202800D01*
X115443000Y-73202800D01*
X115036600Y-73202800D01*
X115036600Y-74422000D01*
X115036600Y-75641200D01*
X114223800Y-75641200D01*
X113411000Y-75641200D01*
X113411000Y-75234800D01*
X113411000Y-74828400D01*
X113817400Y-74828400D01*
X114223800Y-74828400D01*
X114223800Y-74422000D01*
X114223800Y-74015600D01*
X113817400Y-74015600D01*
X113411000Y-74015600D01*
X113411000Y-73609200D01*
X113411000Y-73202800D01*
X112191800Y-73202800D01*
X110972600Y-73202800D01*
X110972600Y-73609200D01*
X110972600Y-74015600D01*
X111379000Y-74015600D01*
X111785400Y-74015600D01*
X111785400Y-74422000D01*
X111785400Y-74828400D01*
X111379000Y-74828400D01*
X110972600Y-74828400D01*
X110972600Y-75234800D01*
X110972600Y-75641200D01*
X110566200Y-75641200D01*
X110159800Y-75641200D01*
X110159800Y-75234800D01*
X110159800Y-74828400D01*
X109347000Y-74828400D01*
X108534200Y-74828400D01*
X108534200Y-75234800D01*
X108534200Y-75641200D01*
X109347000Y-75641200D01*
X110159800Y-75641200D01*
X110159800Y-76047600D01*
X110159800Y-76454000D01*
X109753400Y-76454000D01*
X109347000Y-76454000D01*
X109347000Y-76860400D01*
X109347000Y-77266800D01*
X110972600Y-77266800D01*
X112598200Y-77266800D01*
X112598200Y-76860400D01*
X112598200Y-76454000D01*
X111785400Y-76454000D01*
X110972600Y-76454000D01*
X110972600Y-76047600D01*
X110972600Y-75641200D01*
X112191800Y-75641200D01*
X113411000Y-75641200D01*
X113411000Y-76047600D01*
X113411000Y-76454000D01*
X114630200Y-76454000D01*
X115849400Y-76454000D01*
X115849400Y-76047600D01*
X115849400Y-75641200D01*
X116662200Y-75641200D01*
X117475000Y-75641200D01*
X117475000Y-76047600D01*
X117475000Y-76454000D01*
X117068600Y-76454000D01*
X116662200Y-76454000D01*
X116662200Y-76860400D01*
X116662200Y-77266800D01*
X116255800Y-77266800D01*
X115849400Y-77266800D01*
X115849400Y-77673200D01*
X115849400Y-78079600D01*
X114630200Y-78079600D01*
X113411000Y-78079600D01*
X113411000Y-77673200D01*
X113411000Y-77266800D01*
X113004600Y-77266800D01*
X112598200Y-77266800D01*
X112598200Y-77673200D01*
X112598200Y-78079600D01*
X110566200Y-78079600D01*
X108534200Y-78079600D01*
X108534200Y-77266800D01*
X108534200Y-76454000D01*
X108127800Y-76454000D01*
X107721400Y-76454000D01*
X107721400Y-75641200D01*
X107721400Y-74828400D01*
X106908600Y-74828400D01*
X106095800Y-74828400D01*
X106095800Y-74422000D01*
X106095800Y-74015600D01*
X105689400Y-74015600D01*
X105283000Y-74015600D01*
X105283000Y-74828400D01*
X105283000Y-75641200D01*
X105689400Y-75641200D01*
X106095800Y-75641200D01*
X106095800Y-76047600D01*
X106095800Y-76454000D01*
X105689400Y-76454000D01*
X105283000Y-76454000D01*
X105283000Y-76860400D01*
X105283000Y-77266800D01*
X105689400Y-77266800D01*
X106095800Y-77266800D01*
X106095800Y-76860400D01*
X106095800Y-76454000D01*
X106502200Y-76454000D01*
X106908600Y-76454000D01*
X106908600Y-76860400D01*
X106908600Y-77266800D01*
X107315000Y-77266800D01*
X107721400Y-77266800D01*
X107721400Y-77673200D01*
X107721400Y-78079600D01*
X106502200Y-78079600D01*
X105283000Y-78079600D01*
X105283000Y-77673200D01*
X105283000Y-77266800D01*
X104876600Y-77266800D01*
X104470200Y-77266800D01*
X104470200Y-75641200D01*
X104470200Y-74015600D01*
X104063800Y-74015600D01*
X103657400Y-74015600D01*
X103657400Y-73609200D01*
X103657400Y-73202800D01*
X104063800Y-73202800D01*
X104470200Y-73202800D01*
X104470200Y-73609200D01*
X104470200Y-74015600D01*
X104876600Y-74015600D01*
X105283000Y-74015600D01*
X105283000Y-73202800D01*
X106095800Y-73202800D01*
X106095800Y-73609200D01*
X106095800Y-74015600D01*
X106502200Y-74015600D01*
X106908600Y-74015600D01*
X106908600Y-73609200D01*
X106908600Y-73202800D01*
X106502200Y-73202800D01*
X106095800Y-73202800D01*
X105283000Y-73202800D01*
X105283000Y-72796400D01*
X107721400Y-72796400D01*
X107721400Y-73609200D01*
X107721400Y-74015600D01*
X108940600Y-74015600D01*
X110159800Y-74015600D01*
X110159800Y-72796400D01*
X110159800Y-71577200D01*
X108940600Y-71577200D01*
X107721400Y-71577200D01*
X107721400Y-71983600D01*
X107721400Y-72796400D01*
X105283000Y-72796400D01*
X105283000Y-71577200D01*
X106095800Y-71577200D01*
X106095800Y-71983600D01*
X106095800Y-72390000D01*
X106502200Y-72390000D01*
X106908600Y-72390000D01*
X106908600Y-71983600D01*
X106908600Y-71577200D01*
X106502200Y-71577200D01*
X106095800Y-71577200D01*
X105283000Y-71577200D01*
X104876600Y-71577200D01*
X104470200Y-71577200D01*
X104470200Y-71170800D01*
X104470200Y-70764400D01*
X104063800Y-70764400D01*
X103657400Y-70764400D01*
X103657400Y-70358000D01*
X103657400Y-69951600D01*
X104063800Y-69951600D01*
X104470200Y-69951600D01*
X104470200Y-70358000D01*
X104470200Y-70764400D01*
X105689400Y-70764400D01*
X106908600Y-70764400D01*
X106908600Y-70358000D01*
X106908600Y-69951600D01*
X107315000Y-69951600D01*
X107721400Y-69951600D01*
X109347000Y-69951600D01*
X109347000Y-70764400D01*
X109753400Y-70764400D01*
X110159800Y-70764400D01*
X110159800Y-69951600D01*
X110159800Y-69138800D01*
X109753400Y-69138800D01*
X109347000Y-69138800D01*
X109347000Y-69951600D01*
X107721400Y-69951600D01*
X107721400Y-69545200D01*
X107721400Y-69138800D01*
X106908600Y-69138800D01*
X106095800Y-69138800D01*
X106095800Y-68732400D01*
X106095800Y-68326000D01*
X106908600Y-68326000D01*
X107721400Y-68326000D01*
X107721400Y-67919600D01*
X107721400Y-67513200D01*
X107315000Y-67513200D01*
X106908600Y-67513200D01*
X106908600Y-67106800D01*
X106908600Y-66700400D01*
X107721400Y-66700400D01*
X108534200Y-66700400D01*
X108534200Y-67919600D01*
X108534200Y-69138800D01*
X108940600Y-69138800D01*
X109347000Y-69138800D01*
X109347000Y-68732400D01*
X109347000Y-68326000D01*
X109753400Y-68326000D01*
X110159800Y-68326000D01*
X110159800Y-67919600D01*
X110159800Y-67513200D01*
X110566200Y-67513200D01*
X110972600Y-67513200D01*
X110972600Y-67919600D01*
X110972600Y-68326000D01*
X111379000Y-68326000D01*
X111785400Y-68326000D01*
X111785400Y-68732400D01*
X111785400Y-69138800D01*
X111379000Y-69138800D01*
X110972600Y-69138800D01*
X110972600Y-69545200D01*
X110972600Y-69951600D01*
X111379000Y-69951600D01*
X111785400Y-69951600D01*
X111785400Y-70358000D01*
X111785400Y-70764400D01*
X111379000Y-70764400D01*
X110972600Y-70764400D01*
X110972600Y-71170800D01*
X110972600Y-71577200D01*
X111379000Y-71577200D01*
X111785400Y-71577200D01*
X111785400Y-71983600D01*
X111785400Y-72390000D01*
X112598200Y-72390000D01*
X113411000Y-72390000D01*
X113411000Y-71983600D01*
X113411000Y-71577200D01*
X113817400Y-71577200D01*
X114223800Y-71577200D01*
X114223800Y-71983600D01*
X114223800Y-72390000D01*
X115443000Y-72390000D01*
X116662200Y-72390000D01*
X116662200Y-71577200D01*
X116662200Y-70764400D01*
X117068600Y-70764400D01*
X117475000Y-70764400D01*
X117475000Y-70358000D01*
X117475000Y-69951600D01*
X117881400Y-69951600D01*
X118287800Y-69951600D01*
X118287800Y-69545200D01*
X118287800Y-69138800D01*
X118694200Y-69138800D01*
X119100600Y-69138800D01*
X119100600Y-69545200D01*
X119100600Y-69951600D01*
X119507000Y-69951600D01*
X119913400Y-69951600D01*
X119913400Y-70358000D01*
X119913400Y-70764400D01*
X119507000Y-70764400D01*
X119100600Y-70764400D01*
X119100600Y-71170800D01*
X119100600Y-71577200D01*
X119913400Y-71577200D01*
X120726200Y-71577200D01*
X120726200Y-71170800D01*
X120726200Y-70764400D01*
X121945400Y-70764400D01*
X123164600Y-70764400D01*
X123164600Y-71170800D01*
X123164600Y-71577200D01*
X121945400Y-71577200D01*
X120726200Y-71577200D01*
X120726200Y-72796400D01*
X120726200Y-73609200D01*
G37*
G36*
X108534200Y-63449200D02*
G01*
X108940600Y-63449200D01*
X109347000Y-63449200D01*
X109347000Y-63855600D01*
X109347000Y-64262000D01*
X108534200Y-64262000D01*
X107721400Y-64262000D01*
X107721400Y-64668400D01*
X107721400Y-65074800D01*
X107315000Y-65074800D01*
X106908600Y-65074800D01*
X106908600Y-65887600D01*
X106908600Y-66700400D01*
X106502200Y-66700400D01*
X106095800Y-66700400D01*
X106095800Y-67106800D01*
X106095800Y-67513200D01*
X105689400Y-67513200D01*
X105283000Y-67513200D01*
X105283000Y-67106800D01*
X105283000Y-66700400D01*
X104470200Y-66700400D01*
X103657400Y-66700400D01*
X103657400Y-66294000D01*
X103657400Y-65887600D01*
X104876600Y-65887600D01*
X106095800Y-65887600D01*
X106095800Y-65481200D01*
X106095800Y-65074800D01*
X105689400Y-65074800D01*
X105283000Y-65074800D01*
X105283000Y-64668400D01*
X105283000Y-64262000D01*
X104876600Y-64262000D01*
X104470200Y-64262000D01*
X104470200Y-64668400D01*
X104470200Y-65074800D01*
X104063800Y-65074800D01*
X103657400Y-65074800D01*
X103657400Y-64262000D01*
X103657400Y-63449200D01*
X104470200Y-63449200D01*
X105283000Y-63449200D01*
X105283000Y-63855600D01*
X105283000Y-64262000D01*
X105689400Y-64262000D01*
X106095800Y-64262000D01*
X106095800Y-63855600D01*
X106095800Y-63449200D01*
X105689400Y-63449200D01*
X105283000Y-63449200D01*
X105283000Y-62636400D01*
X106908600Y-62636400D01*
X106908600Y-63042800D01*
X106908600Y-63449200D01*
X107315000Y-63449200D01*
X107721400Y-63449200D01*
X107721400Y-63042800D01*
X107721400Y-62636400D01*
X107315000Y-62636400D01*
X106908600Y-62636400D01*
X105283000Y-62636400D01*
X105283000Y-61823600D01*
X105689400Y-61823600D01*
X106095800Y-61823600D01*
X106095800Y-61417200D01*
X106095800Y-61010800D01*
X106908600Y-61010800D01*
X107721400Y-61010800D01*
X107721400Y-61417200D01*
X107721400Y-61823600D01*
X108534200Y-61823600D01*
X109347000Y-61823600D01*
X109347000Y-62230000D01*
X109347000Y-62636400D01*
X108940600Y-62636400D01*
X108534200Y-62636400D01*
X108534200Y-63042800D01*
X108534200Y-63449200D01*
G37*
G36*
X111379000Y-61823600D02*
G01*
X111785400Y-61823600D01*
X111785400Y-63042800D01*
X111785400Y-64262000D01*
X112191800Y-64262000D01*
X112598200Y-64262000D01*
X112598200Y-64668400D01*
X112598200Y-65074800D01*
X111785400Y-65074800D01*
X110972600Y-65074800D01*
X110972600Y-65481200D01*
X110972600Y-65887600D01*
X110566200Y-65887600D01*
X110159800Y-65887600D01*
X110159800Y-65481200D01*
X110159800Y-65074800D01*
X109753400Y-65074800D01*
X109347000Y-65074800D01*
X109347000Y-64668400D01*
X109347000Y-64262000D01*
X109753400Y-64262000D01*
X110159800Y-64262000D01*
X110159800Y-64668400D01*
X110159800Y-65074800D01*
X110566200Y-65074800D01*
X110972600Y-65074800D01*
X110972600Y-63449200D01*
X110972600Y-61823600D01*
X111379000Y-61823600D01*
G37*
G36*
X115036600Y-54914800D02*
G01*
X115036600Y-55321200D01*
X115443000Y-55321200D01*
X115849400Y-55321200D01*
X115849400Y-54914800D01*
X115849400Y-54508400D01*
X116255800Y-54508400D01*
X116662200Y-54508400D01*
X116662200Y-54914800D01*
X116662200Y-55321200D01*
X117068600Y-55321200D01*
X117475000Y-55321200D01*
X117475000Y-54914800D01*
X117475000Y-54508400D01*
X118694200Y-54508400D01*
X119913400Y-54508400D01*
X119913400Y-54914800D01*
X119913400Y-55321200D01*
X119100600Y-55321200D01*
X118287800Y-55321200D01*
X118287800Y-55727600D01*
X118287800Y-56134000D01*
X119100600Y-56134000D01*
X119913400Y-56134000D01*
X119913400Y-56540400D01*
X119913400Y-56946800D01*
X119507000Y-56946800D01*
X119100600Y-56946800D01*
X119100600Y-57759600D01*
X119100600Y-58572400D01*
X119507000Y-58572400D01*
X119913400Y-58572400D01*
X119913400Y-57759600D01*
X119913400Y-56946800D01*
X120319800Y-56946800D01*
X120726200Y-56946800D01*
X120726200Y-57759600D01*
X120726200Y-58572400D01*
X120319800Y-58572400D01*
X119913400Y-58572400D01*
X119913400Y-58978800D01*
X119913400Y-59385200D01*
X119507000Y-59385200D01*
X119100600Y-59385200D01*
X119100600Y-59791600D01*
X119100600Y-60198000D01*
X118694200Y-60198000D01*
X118287800Y-60198000D01*
X118287800Y-58978800D01*
X118287800Y-57759600D01*
X117881400Y-57759600D01*
X117475000Y-57759600D01*
X117475000Y-56946800D01*
X117475000Y-56134000D01*
X117068600Y-56134000D01*
X116662200Y-56134000D01*
X116662200Y-56540400D01*
X116662200Y-56946800D01*
X116255800Y-56946800D01*
X115849400Y-56946800D01*
X115849400Y-57759600D01*
X115849400Y-58572400D01*
X116255800Y-58572400D01*
X116662200Y-58572400D01*
X116662200Y-58978800D01*
X116662200Y-59385200D01*
X116255800Y-59385200D01*
X115849400Y-59385200D01*
X115849400Y-59791600D01*
X115849400Y-60198000D01*
X115443000Y-60198000D01*
X115036600Y-60198000D01*
X115036600Y-59791600D01*
X115036600Y-59385200D01*
X114630200Y-59385200D01*
X114223800Y-59385200D01*
X114223800Y-59791600D01*
X114223800Y-60198000D01*
X114630200Y-60198000D01*
X115036600Y-60198000D01*
X115036600Y-61417200D01*
X115036600Y-62636400D01*
X114630200Y-62636400D01*
X114223800Y-62636400D01*
X114223800Y-62230000D01*
X114223800Y-61823600D01*
X113817400Y-61823600D01*
X113411000Y-61823600D01*
X113411000Y-61417200D01*
X113411000Y-61010800D01*
X113004600Y-61010800D01*
X112598200Y-61010800D01*
X112598200Y-61417200D01*
X112598200Y-61823600D01*
X112191800Y-61823600D01*
X111785400Y-61823600D01*
X111785400Y-61417200D01*
X111785400Y-61010800D01*
X111379000Y-61010800D01*
X110972600Y-61010800D01*
X110972600Y-61417200D01*
X110972600Y-61823600D01*
X110566200Y-61823600D01*
X110159800Y-61823600D01*
X110159800Y-60604400D01*
X110159800Y-59385200D01*
X110566200Y-59385200D01*
X110972600Y-59385200D01*
X110972600Y-59791600D01*
X110972600Y-60198000D01*
X111379000Y-60198000D01*
X111785400Y-60198000D01*
X111785400Y-59791600D01*
X111785400Y-59385200D01*
X112191800Y-59385200D01*
X112598200Y-59385200D01*
X112598200Y-59791600D01*
X112598200Y-60198000D01*
X113004600Y-60198000D01*
X113411000Y-60198000D01*
X113411000Y-59791600D01*
X113411000Y-59385200D01*
X113004600Y-59385200D01*
X112598200Y-59385200D01*
X112598200Y-58978800D01*
X112598200Y-58572400D01*
X113004600Y-58572400D01*
X113411000Y-58572400D01*
X113411000Y-58978800D01*
X113411000Y-59385200D01*
X113817400Y-59385200D01*
X114223800Y-59385200D01*
X114223800Y-58978800D01*
X114223800Y-58572400D01*
X114630200Y-58572400D01*
X115036600Y-58572400D01*
X115036600Y-56946800D01*
X115036600Y-55321200D01*
X114630200Y-55321200D01*
X114223800Y-55321200D01*
X114223800Y-54914800D01*
X114223800Y-54508400D01*
X114630200Y-54508400D01*
X115036600Y-54508400D01*
X115036600Y-54914800D01*
G37*
G36*
X120319800Y-59385200D02*
G01*
X120726200Y-59385200D01*
X120726200Y-59791600D01*
X120726200Y-60198000D01*
X120319800Y-60198000D01*
X119913400Y-60198000D01*
X119913400Y-59791600D01*
X119913400Y-59385200D01*
X120319800Y-59385200D01*
G37*
G36*
X112598200Y-58166000D02*
G01*
X112598200Y-58572400D01*
X112191800Y-58572400D01*
X111785400Y-58572400D01*
X111785400Y-58166000D01*
X111785400Y-57759600D01*
X112191800Y-57759600D01*
X112598200Y-57759600D01*
X112598200Y-58166000D01*
G37*
G36*
X114223800Y-63449200D02*
G01*
X114223800Y-64262000D01*
X115036600Y-64262000D01*
X115849400Y-64262000D01*
X115849400Y-63855600D01*
X115849400Y-63449200D01*
X115443000Y-63449200D01*
X115036600Y-63449200D01*
X115036600Y-63042800D01*
X115036600Y-62636400D01*
X116662200Y-62636400D01*
X118287800Y-62636400D01*
X118287800Y-63042800D01*
X118287800Y-63449200D01*
X118694200Y-63449200D01*
X119100600Y-63449200D01*
X119100600Y-63855600D01*
X119100600Y-64262000D01*
X119507000Y-64262000D01*
X119913400Y-64262000D01*
X119913400Y-65074800D01*
X119913400Y-65887600D01*
X119507000Y-65887600D01*
X119100600Y-65887600D01*
X119100600Y-66294000D01*
X119100600Y-66700400D01*
X119507000Y-66700400D01*
X119913400Y-66700400D01*
X119913400Y-67513200D01*
X119913400Y-68326000D01*
X120726200Y-68326000D01*
X121539000Y-68326000D01*
X121539000Y-67919600D01*
X121539000Y-67513200D01*
X121945400Y-67513200D01*
X122351800Y-67513200D01*
X122351800Y-67919600D01*
X122351800Y-68326000D01*
X121945400Y-68326000D01*
X121539000Y-68326000D01*
X121539000Y-68732400D01*
X121539000Y-69138800D01*
X121132600Y-69138800D01*
X120726200Y-69138800D01*
X120726200Y-69545200D01*
X120726200Y-69951600D01*
X120319800Y-69951600D01*
X119913400Y-69951600D01*
X119913400Y-69138800D01*
X119913400Y-68326000D01*
X119100600Y-68326000D01*
X118287800Y-68326000D01*
X118287800Y-66294000D01*
X118287800Y-64262000D01*
X117881400Y-64262000D01*
X117475000Y-64262000D01*
X117475000Y-63855600D01*
X117475000Y-63449200D01*
X117068600Y-63449200D01*
X116662200Y-63449200D01*
X116662200Y-64262000D01*
X116662200Y-65074800D01*
X115849400Y-65074800D01*
X115036600Y-65074800D01*
X115036600Y-65481200D01*
X115036600Y-65887600D01*
X115849400Y-65887600D01*
X116662200Y-65887600D01*
X116662200Y-65481200D01*
X116662200Y-65074800D01*
X117068600Y-65074800D01*
X117475000Y-65074800D01*
X117475000Y-65481200D01*
X117475000Y-65887600D01*
X117068600Y-65887600D01*
X116662200Y-65887600D01*
X116662200Y-66294000D01*
X116662200Y-66700400D01*
X116255800Y-66700400D01*
X115849400Y-66700400D01*
X115849400Y-67106800D01*
X115849400Y-67513200D01*
X115443000Y-67513200D01*
X115036600Y-67513200D01*
X115036600Y-67919600D01*
X115036600Y-68326000D01*
X115443000Y-68326000D01*
X115849400Y-68326000D01*
X115849400Y-68732400D01*
X115849400Y-69138800D01*
X115443000Y-69138800D01*
X115036600Y-69138800D01*
X115036600Y-70358000D01*
X115036600Y-71577200D01*
X114630200Y-71577200D01*
X114223800Y-71577200D01*
X114223800Y-71170800D01*
X114223800Y-70764400D01*
X113411000Y-70764400D01*
X112598200Y-70764400D01*
X112598200Y-70358000D01*
X112598200Y-69951600D01*
X112191800Y-69951600D01*
X111785400Y-69951600D01*
X111785400Y-69545200D01*
X111785400Y-69138800D01*
X112191800Y-69138800D01*
X112598200Y-69138800D01*
X112598200Y-69545200D01*
X112598200Y-69951600D01*
X113004600Y-69951600D01*
X113411000Y-69951600D01*
X113411000Y-69545200D01*
X113411000Y-69138800D01*
X113817400Y-69138800D01*
X114223800Y-69138800D01*
X114223800Y-68732400D01*
X114223800Y-68326000D01*
X113817400Y-68326000D01*
X113411000Y-68326000D01*
X113411000Y-67919600D01*
X113411000Y-67513200D01*
X113817400Y-67513200D01*
X114223800Y-67513200D01*
X114223800Y-66294000D01*
X114223800Y-65074800D01*
X113817400Y-65074800D01*
X113411000Y-65074800D01*
X113411000Y-64262000D01*
X113411000Y-63449200D01*
X113004600Y-63449200D01*
X112598200Y-63449200D01*
X112598200Y-63042800D01*
X112598200Y-62636400D01*
X113411000Y-62636400D01*
X114223800Y-62636400D01*
X114223800Y-63449200D01*
G37*
G36*
X121945400Y-69138800D02*
G01*
X122351800Y-69138800D01*
X122351800Y-69545200D01*
X122351800Y-69951600D01*
X121945400Y-69951600D01*
X121539000Y-69951600D01*
X121539000Y-69545200D01*
X121539000Y-69138800D01*
X121945400Y-69138800D01*
G37*
G36*
X117068600Y-66700400D02*
G01*
X117475000Y-66700400D01*
X117475000Y-67513200D01*
X117475000Y-68326000D01*
X117068600Y-68326000D01*
X116662200Y-68326000D01*
X116662200Y-67513200D01*
X116662200Y-66700400D01*
X117068600Y-66700400D01*
G37*
G36*
X121539000Y-65481200D02*
G01*
X121539000Y-65887600D01*
X121945400Y-65887600D01*
X122351800Y-65887600D01*
X122351800Y-66294000D01*
X122351800Y-66700400D01*
X121945400Y-66700400D01*
X121539000Y-66700400D01*
X121539000Y-67106800D01*
X121539000Y-67513200D01*
X121132600Y-67513200D01*
X120726200Y-67513200D01*
X120726200Y-66294000D01*
X120726200Y-65074800D01*
X121132600Y-65074800D01*
X121539000Y-65074800D01*
X121539000Y-65481200D01*
G37*
G36*
X124383800Y-67513200D02*
G01*
X124790200Y-67513200D01*
X124790200Y-68326000D01*
X124790200Y-69138800D01*
X125603000Y-69138800D01*
X126415800Y-69138800D01*
X126415800Y-68732400D01*
X126415800Y-68326000D01*
X126009400Y-68326000D01*
X125603000Y-68326000D01*
X125603000Y-67919600D01*
X125603000Y-67513200D01*
X126415800Y-67513200D01*
X127228600Y-67513200D01*
X127228600Y-69545200D01*
X127228600Y-71577200D01*
X126822200Y-71577200D01*
X126415800Y-71577200D01*
X126415800Y-70764400D01*
X126415800Y-69951600D01*
X126009400Y-69951600D01*
X125603000Y-69951600D01*
X125603000Y-70358000D01*
X125603000Y-70764400D01*
X125196600Y-70764400D01*
X124790200Y-70764400D01*
X124790200Y-71170800D01*
X124790200Y-71577200D01*
X124383800Y-71577200D01*
X123977400Y-71577200D01*
X123977400Y-71170800D01*
X123977400Y-70764400D01*
X123571000Y-70764400D01*
X123164600Y-70764400D01*
X123164600Y-70358000D01*
X123164600Y-69951600D01*
X123571000Y-69951600D01*
X123977400Y-69951600D01*
X123977400Y-69545200D01*
X123977400Y-69138800D01*
X123571000Y-69138800D01*
X123164600Y-69138800D01*
X123164600Y-68732400D01*
X123164600Y-68326000D01*
X123571000Y-68326000D01*
X123977400Y-68326000D01*
X123977400Y-67919600D01*
X123977400Y-67513200D01*
X124383800Y-67513200D01*
G37*
G36*
X127228600Y-62636400D02*
G01*
X127228600Y-64262000D01*
X126822200Y-64262000D01*
X126415800Y-64262000D01*
X126415800Y-63855600D01*
X126415800Y-63449200D01*
X126009400Y-63449200D01*
X125603000Y-63449200D01*
X125603000Y-63855600D01*
X125603000Y-64262000D01*
X125196600Y-64262000D01*
X124790200Y-64262000D01*
X124790200Y-64668400D01*
X124790200Y-65074800D01*
X124383800Y-65074800D01*
X123977400Y-65074800D01*
X123977400Y-66294000D01*
X123977400Y-67513200D01*
X123571000Y-67513200D01*
X123164600Y-67513200D01*
X123164600Y-66700400D01*
X123164600Y-65887600D01*
X122758200Y-65887600D01*
X122351800Y-65887600D01*
X122351800Y-65481200D01*
X122351800Y-65074800D01*
X121945400Y-65074800D01*
X121539000Y-65074800D01*
X121539000Y-64668400D01*
X121539000Y-64262000D01*
X121945400Y-64262000D01*
X122351800Y-64262000D01*
X122351800Y-63855600D01*
X123164600Y-63855600D01*
X123164600Y-64262000D01*
X123571000Y-64262000D01*
X123977400Y-64262000D01*
X123977400Y-63855600D01*
X123977400Y-63449200D01*
X123571000Y-63449200D01*
X123164600Y-63449200D01*
X123164600Y-63855600D01*
X122351800Y-63855600D01*
X122351800Y-63449200D01*
X122758200Y-63449200D01*
X123164600Y-63449200D01*
X123164600Y-63042800D01*
X123164600Y-62636400D01*
X123571000Y-62636400D01*
X123977400Y-62636400D01*
X123977400Y-63042800D01*
X123977400Y-63449200D01*
X124383800Y-63449200D01*
X124790200Y-63449200D01*
X124790200Y-63042800D01*
X124790200Y-62636400D01*
X125196600Y-62636400D01*
X125603000Y-62636400D01*
X125603000Y-61823600D01*
X125603000Y-61010800D01*
X126415800Y-61010800D01*
X127228600Y-61010800D01*
X127228600Y-62636400D01*
G37*
G36*
X119913400Y-62636400D02*
G01*
X120726200Y-62636400D01*
X120726200Y-63042800D01*
X120726200Y-63449200D01*
X121132600Y-63449200D01*
X121539000Y-63449200D01*
X121539000Y-63042800D01*
X121539000Y-62636400D01*
X121945400Y-62636400D01*
X122351800Y-62636400D01*
X122351800Y-63042800D01*
X122351800Y-63449200D01*
X121945400Y-63449200D01*
X121539000Y-63449200D01*
X121539000Y-63855600D01*
X121539000Y-64262000D01*
X120726200Y-64262000D01*
X119913400Y-64262000D01*
X119913400Y-63855600D01*
X119913400Y-63449200D01*
X119507000Y-63449200D01*
X119100600Y-63449200D01*
X119100600Y-63042800D01*
X119100600Y-62636400D01*
X119913400Y-62636400D01*
G37*
G36*
X123164600Y-61823600D02*
G01*
X123164600Y-62636400D01*
X122758200Y-62636400D01*
X122351800Y-62636400D01*
X122351800Y-62230000D01*
X122351800Y-61823600D01*
X121539000Y-61823600D01*
X120726200Y-61823600D01*
X120726200Y-61417200D01*
X120726200Y-61010800D01*
X121945400Y-61010800D01*
X123164600Y-61010800D01*
X123164600Y-61823600D01*
G37*
G36*
X119913400Y-61010800D02*
G01*
X119913400Y-61823600D01*
X119507000Y-61823600D01*
X119100600Y-61823600D01*
X119100600Y-62230000D01*
X119100600Y-62636400D01*
X118694200Y-62636400D01*
X118287800Y-62636400D01*
X118287800Y-61823600D01*
X118287800Y-61010800D01*
X118694200Y-61010800D01*
X119100600Y-61010800D01*
X119100600Y-60604400D01*
X119100600Y-60198000D01*
X119507000Y-60198000D01*
X119913400Y-60198000D01*
X119913400Y-61010800D01*
G37*
G36*
X113411000Y-55321200D02*
G01*
X113411000Y-56134000D01*
X113817400Y-56134000D01*
X114223800Y-56134000D01*
X114223800Y-56540400D01*
X114223800Y-56946800D01*
X113817400Y-56946800D01*
X113411000Y-56946800D01*
X113411000Y-57353200D01*
X113411000Y-57759600D01*
X113004600Y-57759600D01*
X112598200Y-57759600D01*
X112598200Y-57353200D01*
X112598200Y-56946800D01*
X111785400Y-56946800D01*
X110972600Y-56946800D01*
X110972600Y-57759600D01*
X110972600Y-58572400D01*
X110566200Y-58572400D01*
X110159800Y-58572400D01*
X110159800Y-57353200D01*
X110159800Y-56134000D01*
X111379000Y-56134000D01*
X112598200Y-56134000D01*
X112598200Y-55321200D01*
X112598200Y-54508400D01*
X113004600Y-54508400D01*
X113411000Y-54508400D01*
X113411000Y-55321200D01*
G37*
G36*
X127228600Y-78079600D02*
G01*
X124383800Y-78079600D01*
X121539000Y-78079600D01*
X121539000Y-75234800D01*
X121539000Y-73202800D01*
X122351800Y-73202800D01*
X122351800Y-75234800D01*
X122351800Y-77266800D01*
X124383800Y-77266800D01*
X126415800Y-77266800D01*
X126415800Y-75234800D01*
X126415800Y-73202800D01*
X124383800Y-73202800D01*
X122351800Y-73202800D01*
X121539000Y-73202800D01*
X121539000Y-72390000D01*
X124383800Y-72390000D01*
X127228600Y-72390000D01*
X127228600Y-75234800D01*
X127228600Y-78079600D01*
G37*
G36*
X127228600Y-60198000D02*
G01*
X124383800Y-60198000D01*
X121539000Y-60198000D01*
X121539000Y-57353200D01*
X121539000Y-55321200D01*
X122351800Y-55321200D01*
X122351800Y-57353200D01*
X122351800Y-59385200D01*
X124383800Y-59385200D01*
X126415800Y-59385200D01*
X126415800Y-57353200D01*
X126415800Y-55321200D01*
X124383800Y-55321200D01*
X122351800Y-55321200D01*
X121539000Y-55321200D01*
X121539000Y-54508400D01*
X124383800Y-54508400D01*
X127228600Y-54508400D01*
X127228600Y-57353200D01*
X127228600Y-60198000D01*
G37*
G36*
X109347000Y-60198000D02*
G01*
X106502200Y-60198000D01*
X103657400Y-60198000D01*
X103657400Y-57353200D01*
X103657400Y-55321200D01*
X104470200Y-55321200D01*
X104470200Y-57353200D01*
X104470200Y-59385200D01*
X106502200Y-59385200D01*
X108534200Y-59385200D01*
X108534200Y-57353200D01*
X108534200Y-55321200D01*
X106502200Y-55321200D01*
X104470200Y-55321200D01*
X103657400Y-55321200D01*
X103657400Y-54508400D01*
X106502200Y-54508400D01*
X109347000Y-54508400D01*
X109347000Y-57353200D01*
X109347000Y-60198000D01*
G37*
G36*
X127228600Y-65887600D02*
G01*
X127228600Y-66700400D01*
X126009400Y-66700400D01*
X124790200Y-66700400D01*
X124790200Y-66294000D01*
X124790200Y-65887600D01*
X125603000Y-65887600D01*
X126415800Y-65887600D01*
X126415800Y-65481200D01*
X126415800Y-65074800D01*
X126822200Y-65074800D01*
X127228600Y-65074800D01*
X127228600Y-65887600D01*
G37*
G36*
X117475000Y-60604400D02*
G01*
X117475000Y-61823600D01*
X116662200Y-61823600D01*
X115849400Y-61823600D01*
X115849400Y-61417200D01*
X115849400Y-61010800D01*
X116255800Y-61010800D01*
X116662200Y-61010800D01*
X116662200Y-60198000D01*
X116662200Y-59385200D01*
X117068600Y-59385200D01*
X117475000Y-59385200D01*
X117475000Y-60604400D01*
G37*
G36*
X113411000Y-66294000D02*
G01*
X113411000Y-66700400D01*
X112598200Y-66700400D01*
X111785400Y-66700400D01*
X111785400Y-67106800D01*
X111785400Y-67513200D01*
X111379000Y-67513200D01*
X110972600Y-67513200D01*
X110972600Y-66700400D01*
X110972600Y-65887600D01*
X112191800Y-65887600D01*
X113411000Y-65887600D01*
X113411000Y-66294000D01*
G37*
G36*
X105283000Y-69138800D02*
G01*
X105283000Y-69951600D01*
X104876600Y-69951600D01*
X104470200Y-69951600D01*
X104470200Y-69545200D01*
X104470200Y-69138800D01*
X104063800Y-69138800D01*
X103657400Y-69138800D01*
X103657400Y-68732400D01*
X103657400Y-68326000D01*
X104470200Y-68326000D01*
X105283000Y-68326000D01*
X105283000Y-69138800D01*
G37*
G36*
X125603000Y-75234800D02*
G01*
X125603000Y-76454000D01*
X124383800Y-76454000D01*
X123164600Y-76454000D01*
X123164600Y-75234800D01*
X123164600Y-74015600D01*
X124383800Y-74015600D01*
X125603000Y-74015600D01*
X125603000Y-75234800D01*
G37*
G36*
X125603000Y-57353200D02*
G01*
X125603000Y-58572400D01*
X124383800Y-58572400D01*
X123164600Y-58572400D01*
X123164600Y-57353200D01*
X123164600Y-56134000D01*
X124383800Y-56134000D01*
X125603000Y-56134000D01*
X125603000Y-57353200D01*
G37*
G36*
X117475000Y-69545200D02*
G01*
X117475000Y-69951600D01*
X117068600Y-69951600D01*
X116662200Y-69951600D01*
X116662200Y-69545200D01*
X116662200Y-69138800D01*
X117068600Y-69138800D01*
X117475000Y-69138800D01*
X117475000Y-69545200D01*
G37*
G36*
X117475000Y-58166000D02*
G01*
X117475000Y-58572400D01*
X117068600Y-58572400D01*
X116662200Y-58572400D01*
X116662200Y-58166000D01*
X116662200Y-57759600D01*
X117068600Y-57759600D01*
X117475000Y-57759600D01*
X117475000Y-58166000D01*
G37*
G36*
X116662200Y-70358000D02*
G01*
X116662200Y-70764400D01*
X116255800Y-70764400D01*
X115849400Y-70764400D01*
X115849400Y-70358000D01*
X115849400Y-69951600D01*
X116255800Y-69951600D01*
X116662200Y-69951600D01*
X116662200Y-70358000D01*
G37*
G36*
X113411000Y-74422000D02*
G01*
X113411000Y-74828400D01*
X113004600Y-74828400D01*
X112598200Y-74828400D01*
X112598200Y-74422000D01*
X112598200Y-74015600D01*
X113004600Y-74015600D01*
X113411000Y-74015600D01*
X113411000Y-74422000D01*
G37*
G36*
X112598200Y-71170800D02*
G01*
X112598200Y-71577200D01*
X112191800Y-71577200D01*
X111785400Y-71577200D01*
X111785400Y-71170800D01*
X111785400Y-70764400D01*
X112191800Y-70764400D01*
X112598200Y-70764400D01*
X112598200Y-71170800D01*
G37*
G36*
X111785400Y-54914800D02*
G01*
X111785400Y-55321200D01*
X111379000Y-55321200D01*
X110972600Y-55321200D01*
X110972600Y-54914800D01*
X110972600Y-54508400D01*
X111379000Y-54508400D01*
X111785400Y-54508400D01*
X111785400Y-54914800D01*
G37*
G36*
X110159800Y-67106800D02*
G01*
X110159800Y-67513200D01*
X109753400Y-67513200D01*
X109347000Y-67513200D01*
X109347000Y-67106800D01*
X109347000Y-66700400D01*
X109753400Y-66700400D01*
X110159800Y-66700400D01*
X110159800Y-67106800D01*
G37*
G36*
X109347000Y-72796400D02*
G01*
X109347000Y-73202800D01*
X108940600Y-73202800D01*
X108534200Y-73202800D01*
X108534200Y-72796400D01*
X108534200Y-72390000D01*
X108940600Y-72390000D01*
X109347000Y-72390000D01*
X109347000Y-72796400D01*
G37*
G36*
X107721400Y-57353200D02*
G01*
X107721400Y-58572400D01*
X106502200Y-58572400D01*
X105283000Y-58572400D01*
X105283000Y-57353200D01*
X105283000Y-56134000D01*
X106502200Y-56134000D01*
X107721400Y-56134000D01*
X107721400Y-57353200D01*
G37*
G36*
X104470200Y-71983600D02*
G01*
X104470200Y-72390000D01*
X104063800Y-72390000D01*
X103657400Y-72390000D01*
X103657400Y-71983600D01*
X103657400Y-71577200D01*
X104063800Y-71577200D01*
X104470200Y-71577200D01*
X104470200Y-71983600D01*
G37*
G36*
X104470200Y-62230000D02*
G01*
X104470200Y-62636400D01*
X104063800Y-62636400D01*
X103657400Y-62636400D01*
X103657400Y-62230000D01*
X103657400Y-61823600D01*
X104063800Y-61823600D01*
X104470200Y-61823600D01*
X104470200Y-62230000D01*
G37*
G04 #@! TD*
%LPC*%
D11*
G04 #@! TO.C,D1*
X157800000Y-54800000D03*
D12*
X157800000Y-57340000D03*
G04 #@! TD*
D13*
G04 #@! TO.C,SW3*
X133000000Y-83500000D03*
X133000000Y-77000000D03*
X137500000Y-83500000D03*
X137500000Y-77000000D03*
G04 #@! TD*
D14*
G04 #@! TO.C,R3*
X149860000Y-81280000D03*
X142240000Y-81280000D03*
G04 #@! TD*
D13*
G04 #@! TO.C,SW2*
X133000000Y-72000000D03*
X133000000Y-65500000D03*
X137500000Y-72000000D03*
X137500000Y-65500000D03*
G04 #@! TD*
D14*
G04 #@! TO.C,R1*
X151000000Y-56000000D03*
X143380000Y-56000000D03*
G04 #@! TD*
D12*
G04 #@! TO.C,D2*
X158000000Y-69775000D03*
D11*
X158000000Y-67235000D03*
G04 #@! TD*
D14*
G04 #@! TO.C,R2*
X151000000Y-68500000D03*
X143380000Y-68500000D03*
G04 #@! TD*
D13*
G04 #@! TO.C,SW1*
X132750000Y-60250000D03*
X132750000Y-53750000D03*
X137250000Y-60250000D03*
X137250000Y-53750000D03*
G04 #@! TD*
D12*
G04 #@! TO.C,D3*
X158080000Y-81050000D03*
D11*
X158080000Y-78510000D03*
G04 #@! TD*
%LPD*%
M02*
