G04 #@! TF.GenerationSoftware,KiCad,Pcbnew,9.0.2*
G04 #@! TF.CreationDate,2025-05-20T16:04:07-06:00*
G04 #@! TF.ProjectId,test_kicad,74657374-5f6b-4696-9361-642e6b696361,rev?*
G04 #@! TF.SameCoordinates,Original*
G04 #@! TF.FileFunction,Legend,Top*
G04 #@! TF.FilePolarity,Positive*
%FSLAX46Y46*%
G04 Gerber Fmt 4.6, Leading zero omitted, Abs format (unit mm)*
G04 Created by KiCad (PCBNEW 9.0.2) date 2025-05-20 16:04:07*
%MOMM*%
%LPD*%
G01*
G04 APERTURE LIST*
%ADD10C,0.300000*%
%ADD11C,0.150000*%
%ADD12C,0.120000*%
%ADD13C,1.800000*%
%ADD14R,1.800000X1.800000*%
%ADD15R,5.080000X1.270000*%
%ADD16C,17.800000*%
%ADD17C,2.000000*%
%ADD18C,1.600000*%
G04 APERTURE END LIST*
D10*
X151483082Y-86886542D02*
X151411653Y-86815114D01*
X151411653Y-86815114D02*
X151268796Y-86743685D01*
X151268796Y-86743685D02*
X151125939Y-86743685D01*
X151125939Y-86743685D02*
X150983082Y-86815114D01*
X150983082Y-86815114D02*
X150911653Y-86886542D01*
X150911653Y-86886542D02*
X150840225Y-87029400D01*
X150840225Y-87029400D02*
X150840225Y-87172257D01*
X150840225Y-87172257D02*
X150911653Y-87315114D01*
X150911653Y-87315114D02*
X150983082Y-87386542D01*
X150983082Y-87386542D02*
X151125939Y-87457971D01*
X151125939Y-87457971D02*
X151268796Y-87457971D01*
X151268796Y-87457971D02*
X151411653Y-87386542D01*
X151411653Y-87386542D02*
X151483082Y-87315114D01*
X151483082Y-86743685D02*
X151483082Y-87315114D01*
X151483082Y-87315114D02*
X151554510Y-87386542D01*
X151554510Y-87386542D02*
X151625939Y-87386542D01*
X151625939Y-87386542D02*
X151768796Y-87315114D01*
X151768796Y-87315114D02*
X151840225Y-87172257D01*
X151840225Y-87172257D02*
X151840225Y-86815114D01*
X151840225Y-86815114D02*
X151697368Y-86600828D01*
X151697368Y-86600828D02*
X151483082Y-86457971D01*
X151483082Y-86457971D02*
X151197368Y-86386542D01*
X151197368Y-86386542D02*
X150911653Y-86457971D01*
X150911653Y-86457971D02*
X150697368Y-86600828D01*
X150697368Y-86600828D02*
X150554510Y-86815114D01*
X150554510Y-86815114D02*
X150483082Y-87100828D01*
X150483082Y-87100828D02*
X150554510Y-87386542D01*
X150554510Y-87386542D02*
X150697368Y-87600828D01*
X150697368Y-87600828D02*
X150911653Y-87743685D01*
X150911653Y-87743685D02*
X151197368Y-87815114D01*
X151197368Y-87815114D02*
X151483082Y-87743685D01*
X151483082Y-87743685D02*
X151697368Y-87600828D01*
X153125939Y-87600828D02*
X153125939Y-86100828D01*
X153125939Y-87529400D02*
X152983081Y-87600828D01*
X152983081Y-87600828D02*
X152697367Y-87600828D01*
X152697367Y-87600828D02*
X152554510Y-87529400D01*
X152554510Y-87529400D02*
X152483081Y-87457971D01*
X152483081Y-87457971D02*
X152411653Y-87315114D01*
X152411653Y-87315114D02*
X152411653Y-86886542D01*
X152411653Y-86886542D02*
X152483081Y-86743685D01*
X152483081Y-86743685D02*
X152554510Y-86672257D01*
X152554510Y-86672257D02*
X152697367Y-86600828D01*
X152697367Y-86600828D02*
X152983081Y-86600828D01*
X152983081Y-86600828D02*
X153125939Y-86672257D01*
X154411653Y-87529400D02*
X154268796Y-87600828D01*
X154268796Y-87600828D02*
X153983082Y-87600828D01*
X153983082Y-87600828D02*
X153840224Y-87529400D01*
X153840224Y-87529400D02*
X153768796Y-87386542D01*
X153768796Y-87386542D02*
X153768796Y-86815114D01*
X153768796Y-86815114D02*
X153840224Y-86672257D01*
X153840224Y-86672257D02*
X153983082Y-86600828D01*
X153983082Y-86600828D02*
X154268796Y-86600828D01*
X154268796Y-86600828D02*
X154411653Y-86672257D01*
X154411653Y-86672257D02*
X154483082Y-86815114D01*
X154483082Y-86815114D02*
X154483082Y-86957971D01*
X154483082Y-86957971D02*
X153768796Y-87100828D01*
X155125938Y-86600828D02*
X155125938Y-87600828D01*
X155125938Y-86743685D02*
X155197367Y-86672257D01*
X155197367Y-86672257D02*
X155340224Y-86600828D01*
X155340224Y-86600828D02*
X155554510Y-86600828D01*
X155554510Y-86600828D02*
X155697367Y-86672257D01*
X155697367Y-86672257D02*
X155768796Y-86815114D01*
X155768796Y-86815114D02*
X155768796Y-87600828D01*
X156483081Y-87600828D02*
X156483081Y-86600828D01*
X156483081Y-86100828D02*
X156411653Y-86172257D01*
X156411653Y-86172257D02*
X156483081Y-86243685D01*
X156483081Y-86243685D02*
X156554510Y-86172257D01*
X156554510Y-86172257D02*
X156483081Y-86100828D01*
X156483081Y-86100828D02*
X156483081Y-86243685D01*
X157125939Y-87529400D02*
X157268796Y-87600828D01*
X157268796Y-87600828D02*
X157554510Y-87600828D01*
X157554510Y-87600828D02*
X157697367Y-87529400D01*
X157697367Y-87529400D02*
X157768796Y-87386542D01*
X157768796Y-87386542D02*
X157768796Y-87315114D01*
X157768796Y-87315114D02*
X157697367Y-87172257D01*
X157697367Y-87172257D02*
X157554510Y-87100828D01*
X157554510Y-87100828D02*
X157340225Y-87100828D01*
X157340225Y-87100828D02*
X157197367Y-87029400D01*
X157197367Y-87029400D02*
X157125939Y-86886542D01*
X157125939Y-86886542D02*
X157125939Y-86815114D01*
X157125939Y-86815114D02*
X157197367Y-86672257D01*
X157197367Y-86672257D02*
X157340225Y-86600828D01*
X157340225Y-86600828D02*
X157554510Y-86600828D01*
X157554510Y-86600828D02*
X157697367Y-86672257D01*
X159125939Y-86100828D02*
X158411653Y-86100828D01*
X158411653Y-86100828D02*
X158340225Y-86815114D01*
X158340225Y-86815114D02*
X158411653Y-86743685D01*
X158411653Y-86743685D02*
X158554511Y-86672257D01*
X158554511Y-86672257D02*
X158911653Y-86672257D01*
X158911653Y-86672257D02*
X159054511Y-86743685D01*
X159054511Y-86743685D02*
X159125939Y-86815114D01*
X159125939Y-86815114D02*
X159197368Y-86957971D01*
X159197368Y-86957971D02*
X159197368Y-87315114D01*
X159197368Y-87315114D02*
X159125939Y-87457971D01*
X159125939Y-87457971D02*
X159054511Y-87529400D01*
X159054511Y-87529400D02*
X158911653Y-87600828D01*
X158911653Y-87600828D02*
X158554511Y-87600828D01*
X158554511Y-87600828D02*
X158411653Y-87529400D01*
X158411653Y-87529400D02*
X158340225Y-87457971D01*
X159911653Y-87600828D02*
X160197367Y-87600828D01*
X160197367Y-87600828D02*
X160340224Y-87529400D01*
X160340224Y-87529400D02*
X160411653Y-87457971D01*
X160411653Y-87457971D02*
X160554510Y-87243685D01*
X160554510Y-87243685D02*
X160625939Y-86957971D01*
X160625939Y-86957971D02*
X160625939Y-86386542D01*
X160625939Y-86386542D02*
X160554510Y-86243685D01*
X160554510Y-86243685D02*
X160483082Y-86172257D01*
X160483082Y-86172257D02*
X160340224Y-86100828D01*
X160340224Y-86100828D02*
X160054510Y-86100828D01*
X160054510Y-86100828D02*
X159911653Y-86172257D01*
X159911653Y-86172257D02*
X159840224Y-86243685D01*
X159840224Y-86243685D02*
X159768796Y-86386542D01*
X159768796Y-86386542D02*
X159768796Y-86743685D01*
X159768796Y-86743685D02*
X159840224Y-86886542D01*
X159840224Y-86886542D02*
X159911653Y-86957971D01*
X159911653Y-86957971D02*
X160054510Y-87029400D01*
X160054510Y-87029400D02*
X160340224Y-87029400D01*
X160340224Y-87029400D02*
X160483082Y-86957971D01*
X160483082Y-86957971D02*
X160554510Y-86886542D01*
X160554510Y-86886542D02*
X160625939Y-86743685D01*
X161983081Y-86100828D02*
X161268795Y-86100828D01*
X161268795Y-86100828D02*
X161197367Y-86815114D01*
X161197367Y-86815114D02*
X161268795Y-86743685D01*
X161268795Y-86743685D02*
X161411653Y-86672257D01*
X161411653Y-86672257D02*
X161768795Y-86672257D01*
X161768795Y-86672257D02*
X161911653Y-86743685D01*
X161911653Y-86743685D02*
X161983081Y-86815114D01*
X161983081Y-86815114D02*
X162054510Y-86957971D01*
X162054510Y-86957971D02*
X162054510Y-87315114D01*
X162054510Y-87315114D02*
X161983081Y-87457971D01*
X161983081Y-87457971D02*
X161911653Y-87529400D01*
X161911653Y-87529400D02*
X161768795Y-87600828D01*
X161768795Y-87600828D02*
X161411653Y-87600828D01*
X161411653Y-87600828D02*
X161268795Y-87529400D01*
X161268795Y-87529400D02*
X161197367Y-87457971D01*
X162768795Y-87600828D02*
X163054509Y-87600828D01*
X163054509Y-87600828D02*
X163197366Y-87529400D01*
X163197366Y-87529400D02*
X163268795Y-87457971D01*
X163268795Y-87457971D02*
X163411652Y-87243685D01*
X163411652Y-87243685D02*
X163483081Y-86957971D01*
X163483081Y-86957971D02*
X163483081Y-86386542D01*
X163483081Y-86386542D02*
X163411652Y-86243685D01*
X163411652Y-86243685D02*
X163340224Y-86172257D01*
X163340224Y-86172257D02*
X163197366Y-86100828D01*
X163197366Y-86100828D02*
X162911652Y-86100828D01*
X162911652Y-86100828D02*
X162768795Y-86172257D01*
X162768795Y-86172257D02*
X162697366Y-86243685D01*
X162697366Y-86243685D02*
X162625938Y-86386542D01*
X162625938Y-86386542D02*
X162625938Y-86743685D01*
X162625938Y-86743685D02*
X162697366Y-86886542D01*
X162697366Y-86886542D02*
X162768795Y-86957971D01*
X162768795Y-86957971D02*
X162911652Y-87029400D01*
X162911652Y-87029400D02*
X163197366Y-87029400D01*
X163197366Y-87029400D02*
X163340224Y-86957971D01*
X163340224Y-86957971D02*
X163411652Y-86886542D01*
X163411652Y-86886542D02*
X163483081Y-86743685D01*
D11*
X102955826Y-52808628D02*
X102955826Y-51308628D01*
X102955826Y-51308628D02*
X103455826Y-52380057D01*
X103455826Y-52380057D02*
X103955826Y-51308628D01*
X103955826Y-51308628D02*
X103955826Y-52808628D01*
X104527255Y-51808628D02*
X104884398Y-52808628D01*
X105241541Y-51808628D02*
X104884398Y-52808628D01*
X104884398Y-52808628D02*
X104741541Y-53165771D01*
X104741541Y-53165771D02*
X104670112Y-53237200D01*
X104670112Y-53237200D02*
X104527255Y-53308628D01*
X107455826Y-52022914D02*
X106955826Y-52022914D01*
X106955826Y-52808628D02*
X106955826Y-51308628D01*
X106955826Y-51308628D02*
X107670112Y-51308628D01*
X108241540Y-52808628D02*
X108241540Y-51808628D01*
X108241540Y-51308628D02*
X108170112Y-51380057D01*
X108170112Y-51380057D02*
X108241540Y-51451485D01*
X108241540Y-51451485D02*
X108312969Y-51380057D01*
X108312969Y-51380057D02*
X108241540Y-51308628D01*
X108241540Y-51308628D02*
X108241540Y-51451485D01*
X108955826Y-52808628D02*
X108955826Y-51808628D01*
X108955826Y-52094342D02*
X109027255Y-51951485D01*
X109027255Y-51951485D02*
X109098684Y-51880057D01*
X109098684Y-51880057D02*
X109241541Y-51808628D01*
X109241541Y-51808628D02*
X109384398Y-51808628D01*
X109812969Y-52737200D02*
X109955826Y-52808628D01*
X109955826Y-52808628D02*
X110241540Y-52808628D01*
X110241540Y-52808628D02*
X110384397Y-52737200D01*
X110384397Y-52737200D02*
X110455826Y-52594342D01*
X110455826Y-52594342D02*
X110455826Y-52522914D01*
X110455826Y-52522914D02*
X110384397Y-52380057D01*
X110384397Y-52380057D02*
X110241540Y-52308628D01*
X110241540Y-52308628D02*
X110027255Y-52308628D01*
X110027255Y-52308628D02*
X109884397Y-52237200D01*
X109884397Y-52237200D02*
X109812969Y-52094342D01*
X109812969Y-52094342D02*
X109812969Y-52022914D01*
X109812969Y-52022914D02*
X109884397Y-51880057D01*
X109884397Y-51880057D02*
X110027255Y-51808628D01*
X110027255Y-51808628D02*
X110241540Y-51808628D01*
X110241540Y-51808628D02*
X110384397Y-51880057D01*
X110884398Y-51808628D02*
X111455826Y-51808628D01*
X111098683Y-51308628D02*
X111098683Y-52594342D01*
X111098683Y-52594342D02*
X111170112Y-52737200D01*
X111170112Y-52737200D02*
X111312969Y-52808628D01*
X111312969Y-52808628D02*
X111455826Y-52808628D01*
X113098683Y-52808628D02*
X113098683Y-51308628D01*
X113098683Y-51308628D02*
X113670112Y-51308628D01*
X113670112Y-51308628D02*
X113812969Y-51380057D01*
X113812969Y-51380057D02*
X113884398Y-51451485D01*
X113884398Y-51451485D02*
X113955826Y-51594342D01*
X113955826Y-51594342D02*
X113955826Y-51808628D01*
X113955826Y-51808628D02*
X113884398Y-51951485D01*
X113884398Y-51951485D02*
X113812969Y-52022914D01*
X113812969Y-52022914D02*
X113670112Y-52094342D01*
X113670112Y-52094342D02*
X113098683Y-52094342D01*
X115455826Y-52665771D02*
X115384398Y-52737200D01*
X115384398Y-52737200D02*
X115170112Y-52808628D01*
X115170112Y-52808628D02*
X115027255Y-52808628D01*
X115027255Y-52808628D02*
X114812969Y-52737200D01*
X114812969Y-52737200D02*
X114670112Y-52594342D01*
X114670112Y-52594342D02*
X114598683Y-52451485D01*
X114598683Y-52451485D02*
X114527255Y-52165771D01*
X114527255Y-52165771D02*
X114527255Y-51951485D01*
X114527255Y-51951485D02*
X114598683Y-51665771D01*
X114598683Y-51665771D02*
X114670112Y-51522914D01*
X114670112Y-51522914D02*
X114812969Y-51380057D01*
X114812969Y-51380057D02*
X115027255Y-51308628D01*
X115027255Y-51308628D02*
X115170112Y-51308628D01*
X115170112Y-51308628D02*
X115384398Y-51380057D01*
X115384398Y-51380057D02*
X115455826Y-51451485D01*
X116598683Y-52022914D02*
X116812969Y-52094342D01*
X116812969Y-52094342D02*
X116884398Y-52165771D01*
X116884398Y-52165771D02*
X116955826Y-52308628D01*
X116955826Y-52308628D02*
X116955826Y-52522914D01*
X116955826Y-52522914D02*
X116884398Y-52665771D01*
X116884398Y-52665771D02*
X116812969Y-52737200D01*
X116812969Y-52737200D02*
X116670112Y-52808628D01*
X116670112Y-52808628D02*
X116098683Y-52808628D01*
X116098683Y-52808628D02*
X116098683Y-51308628D01*
X116098683Y-51308628D02*
X116598683Y-51308628D01*
X116598683Y-51308628D02*
X116741541Y-51380057D01*
X116741541Y-51380057D02*
X116812969Y-51451485D01*
X116812969Y-51451485D02*
X116884398Y-51594342D01*
X116884398Y-51594342D02*
X116884398Y-51737200D01*
X116884398Y-51737200D02*
X116812969Y-51880057D01*
X116812969Y-51880057D02*
X116741541Y-51951485D01*
X116741541Y-51951485D02*
X116598683Y-52022914D01*
X116598683Y-52022914D02*
X116098683Y-52022914D01*
X102884398Y-54880057D02*
X103598684Y-54880057D01*
X102741541Y-55308628D02*
X103241541Y-53808628D01*
X103241541Y-53808628D02*
X103741541Y-55308628D01*
X104527255Y-53808628D02*
X104670112Y-53808628D01*
X104670112Y-53808628D02*
X104812969Y-53880057D01*
X104812969Y-53880057D02*
X104884398Y-53951485D01*
X104884398Y-53951485D02*
X104955826Y-54094342D01*
X104955826Y-54094342D02*
X105027255Y-54380057D01*
X105027255Y-54380057D02*
X105027255Y-54737200D01*
X105027255Y-54737200D02*
X104955826Y-55022914D01*
X104955826Y-55022914D02*
X104884398Y-55165771D01*
X104884398Y-55165771D02*
X104812969Y-55237200D01*
X104812969Y-55237200D02*
X104670112Y-55308628D01*
X104670112Y-55308628D02*
X104527255Y-55308628D01*
X104527255Y-55308628D02*
X104384398Y-55237200D01*
X104384398Y-55237200D02*
X104312969Y-55165771D01*
X104312969Y-55165771D02*
X104241540Y-55022914D01*
X104241540Y-55022914D02*
X104170112Y-54737200D01*
X104170112Y-54737200D02*
X104170112Y-54380057D01*
X104170112Y-54380057D02*
X104241540Y-54094342D01*
X104241540Y-54094342D02*
X104312969Y-53951485D01*
X104312969Y-53951485D02*
X104384398Y-53880057D01*
X104384398Y-53880057D02*
X104527255Y-53808628D01*
X106455826Y-55308628D02*
X105598683Y-55308628D01*
X106027254Y-55308628D02*
X106027254Y-53808628D01*
X106027254Y-53808628D02*
X105884397Y-54022914D01*
X105884397Y-54022914D02*
X105741540Y-54165771D01*
X105741540Y-54165771D02*
X105598683Y-54237200D01*
X107741540Y-54308628D02*
X107741540Y-55308628D01*
X107384397Y-53737200D02*
X107027254Y-54808628D01*
X107027254Y-54808628D02*
X107955825Y-54808628D01*
X109312968Y-55308628D02*
X108455825Y-55308628D01*
X108884396Y-55308628D02*
X108884396Y-53808628D01*
X108884396Y-53808628D02*
X108741539Y-54022914D01*
X108741539Y-54022914D02*
X108598682Y-54165771D01*
X108598682Y-54165771D02*
X108455825Y-54237200D01*
X110241539Y-53808628D02*
X110384396Y-53808628D01*
X110384396Y-53808628D02*
X110527253Y-53880057D01*
X110527253Y-53880057D02*
X110598682Y-53951485D01*
X110598682Y-53951485D02*
X110670110Y-54094342D01*
X110670110Y-54094342D02*
X110741539Y-54380057D01*
X110741539Y-54380057D02*
X110741539Y-54737200D01*
X110741539Y-54737200D02*
X110670110Y-55022914D01*
X110670110Y-55022914D02*
X110598682Y-55165771D01*
X110598682Y-55165771D02*
X110527253Y-55237200D01*
X110527253Y-55237200D02*
X110384396Y-55308628D01*
X110384396Y-55308628D02*
X110241539Y-55308628D01*
X110241539Y-55308628D02*
X110098682Y-55237200D01*
X110098682Y-55237200D02*
X110027253Y-55165771D01*
X110027253Y-55165771D02*
X109955824Y-55022914D01*
X109955824Y-55022914D02*
X109884396Y-54737200D01*
X109884396Y-54737200D02*
X109884396Y-54380057D01*
X109884396Y-54380057D02*
X109955824Y-54094342D01*
X109955824Y-54094342D02*
X110027253Y-53951485D01*
X110027253Y-53951485D02*
X110098682Y-53880057D01*
X110098682Y-53880057D02*
X110241539Y-53808628D01*
X111670110Y-53808628D02*
X111812967Y-53808628D01*
X111812967Y-53808628D02*
X111955824Y-53880057D01*
X111955824Y-53880057D02*
X112027253Y-53951485D01*
X112027253Y-53951485D02*
X112098681Y-54094342D01*
X112098681Y-54094342D02*
X112170110Y-54380057D01*
X112170110Y-54380057D02*
X112170110Y-54737200D01*
X112170110Y-54737200D02*
X112098681Y-55022914D01*
X112098681Y-55022914D02*
X112027253Y-55165771D01*
X112027253Y-55165771D02*
X111955824Y-55237200D01*
X111955824Y-55237200D02*
X111812967Y-55308628D01*
X111812967Y-55308628D02*
X111670110Y-55308628D01*
X111670110Y-55308628D02*
X111527253Y-55237200D01*
X111527253Y-55237200D02*
X111455824Y-55165771D01*
X111455824Y-55165771D02*
X111384395Y-55022914D01*
X111384395Y-55022914D02*
X111312967Y-54737200D01*
X111312967Y-54737200D02*
X111312967Y-54380057D01*
X111312967Y-54380057D02*
X111384395Y-54094342D01*
X111384395Y-54094342D02*
X111455824Y-53951485D01*
X111455824Y-53951485D02*
X111527253Y-53880057D01*
X111527253Y-53880057D02*
X111670110Y-53808628D01*
X112884395Y-55308628D02*
X113170109Y-55308628D01*
X113170109Y-55308628D02*
X113312966Y-55237200D01*
X113312966Y-55237200D02*
X113384395Y-55165771D01*
X113384395Y-55165771D02*
X113527252Y-54951485D01*
X113527252Y-54951485D02*
X113598681Y-54665771D01*
X113598681Y-54665771D02*
X113598681Y-54094342D01*
X113598681Y-54094342D02*
X113527252Y-53951485D01*
X113527252Y-53951485D02*
X113455824Y-53880057D01*
X113455824Y-53880057D02*
X113312966Y-53808628D01*
X113312966Y-53808628D02*
X113027252Y-53808628D01*
X113027252Y-53808628D02*
X112884395Y-53880057D01*
X112884395Y-53880057D02*
X112812966Y-53951485D01*
X112812966Y-53951485D02*
X112741538Y-54094342D01*
X112741538Y-54094342D02*
X112741538Y-54451485D01*
X112741538Y-54451485D02*
X112812966Y-54594342D01*
X112812966Y-54594342D02*
X112884395Y-54665771D01*
X112884395Y-54665771D02*
X113027252Y-54737200D01*
X113027252Y-54737200D02*
X113312966Y-54737200D01*
X113312966Y-54737200D02*
X113455824Y-54665771D01*
X113455824Y-54665771D02*
X113527252Y-54594342D01*
X113527252Y-54594342D02*
X113598681Y-54451485D01*
X114884395Y-54308628D02*
X114884395Y-55308628D01*
X114527252Y-53737200D02*
X114170109Y-54808628D01*
X114170109Y-54808628D02*
X115098680Y-54808628D01*
X154294819Y-56808094D02*
X153294819Y-56808094D01*
X153294819Y-56808094D02*
X153294819Y-56569999D01*
X153294819Y-56569999D02*
X153342438Y-56427142D01*
X153342438Y-56427142D02*
X153437676Y-56331904D01*
X153437676Y-56331904D02*
X153532914Y-56284285D01*
X153532914Y-56284285D02*
X153723390Y-56236666D01*
X153723390Y-56236666D02*
X153866247Y-56236666D01*
X153866247Y-56236666D02*
X154056723Y-56284285D01*
X154056723Y-56284285D02*
X154151961Y-56331904D01*
X154151961Y-56331904D02*
X154247200Y-56427142D01*
X154247200Y-56427142D02*
X154294819Y-56569999D01*
X154294819Y-56569999D02*
X154294819Y-56808094D01*
X154294819Y-55284285D02*
X154294819Y-55855713D01*
X154294819Y-55569999D02*
X153294819Y-55569999D01*
X153294819Y-55569999D02*
X153437676Y-55665237D01*
X153437676Y-55665237D02*
X153532914Y-55760475D01*
X153532914Y-55760475D02*
X153580533Y-55855713D01*
X131407200Y-81583332D02*
X131454819Y-81440475D01*
X131454819Y-81440475D02*
X131454819Y-81202380D01*
X131454819Y-81202380D02*
X131407200Y-81107142D01*
X131407200Y-81107142D02*
X131359580Y-81059523D01*
X131359580Y-81059523D02*
X131264342Y-81011904D01*
X131264342Y-81011904D02*
X131169104Y-81011904D01*
X131169104Y-81011904D02*
X131073866Y-81059523D01*
X131073866Y-81059523D02*
X131026247Y-81107142D01*
X131026247Y-81107142D02*
X130978628Y-81202380D01*
X130978628Y-81202380D02*
X130931009Y-81392856D01*
X130931009Y-81392856D02*
X130883390Y-81488094D01*
X130883390Y-81488094D02*
X130835771Y-81535713D01*
X130835771Y-81535713D02*
X130740533Y-81583332D01*
X130740533Y-81583332D02*
X130645295Y-81583332D01*
X130645295Y-81583332D02*
X130550057Y-81535713D01*
X130550057Y-81535713D02*
X130502438Y-81488094D01*
X130502438Y-81488094D02*
X130454819Y-81392856D01*
X130454819Y-81392856D02*
X130454819Y-81154761D01*
X130454819Y-81154761D02*
X130502438Y-81011904D01*
X130454819Y-80678570D02*
X131454819Y-80440475D01*
X131454819Y-80440475D02*
X130740533Y-80249999D01*
X130740533Y-80249999D02*
X131454819Y-80059523D01*
X131454819Y-80059523D02*
X130454819Y-79821428D01*
X130454819Y-79535713D02*
X130454819Y-78916666D01*
X130454819Y-78916666D02*
X130835771Y-79249999D01*
X130835771Y-79249999D02*
X130835771Y-79107142D01*
X130835771Y-79107142D02*
X130883390Y-79011904D01*
X130883390Y-79011904D02*
X130931009Y-78964285D01*
X130931009Y-78964285D02*
X131026247Y-78916666D01*
X131026247Y-78916666D02*
X131264342Y-78916666D01*
X131264342Y-78916666D02*
X131359580Y-78964285D01*
X131359580Y-78964285D02*
X131407200Y-79011904D01*
X131407200Y-79011904D02*
X131454819Y-79107142D01*
X131454819Y-79107142D02*
X131454819Y-79392856D01*
X131454819Y-79392856D02*
X131407200Y-79488094D01*
X131407200Y-79488094D02*
X131359580Y-79535713D01*
X145883333Y-84104819D02*
X145550000Y-83628628D01*
X145311905Y-84104819D02*
X145311905Y-83104819D01*
X145311905Y-83104819D02*
X145692857Y-83104819D01*
X145692857Y-83104819D02*
X145788095Y-83152438D01*
X145788095Y-83152438D02*
X145835714Y-83200057D01*
X145835714Y-83200057D02*
X145883333Y-83295295D01*
X145883333Y-83295295D02*
X145883333Y-83438152D01*
X145883333Y-83438152D02*
X145835714Y-83533390D01*
X145835714Y-83533390D02*
X145788095Y-83581009D01*
X145788095Y-83581009D02*
X145692857Y-83628628D01*
X145692857Y-83628628D02*
X145311905Y-83628628D01*
X146216667Y-83104819D02*
X146835714Y-83104819D01*
X146835714Y-83104819D02*
X146502381Y-83485771D01*
X146502381Y-83485771D02*
X146645238Y-83485771D01*
X146645238Y-83485771D02*
X146740476Y-83533390D01*
X146740476Y-83533390D02*
X146788095Y-83581009D01*
X146788095Y-83581009D02*
X146835714Y-83676247D01*
X146835714Y-83676247D02*
X146835714Y-83914342D01*
X146835714Y-83914342D02*
X146788095Y-84009580D01*
X146788095Y-84009580D02*
X146740476Y-84057200D01*
X146740476Y-84057200D02*
X146645238Y-84104819D01*
X146645238Y-84104819D02*
X146359524Y-84104819D01*
X146359524Y-84104819D02*
X146264286Y-84057200D01*
X146264286Y-84057200D02*
X146216667Y-84009580D01*
X147023333Y-58824819D02*
X146690000Y-58348628D01*
X146451905Y-58824819D02*
X146451905Y-57824819D01*
X146451905Y-57824819D02*
X146832857Y-57824819D01*
X146832857Y-57824819D02*
X146928095Y-57872438D01*
X146928095Y-57872438D02*
X146975714Y-57920057D01*
X146975714Y-57920057D02*
X147023333Y-58015295D01*
X147023333Y-58015295D02*
X147023333Y-58158152D01*
X147023333Y-58158152D02*
X146975714Y-58253390D01*
X146975714Y-58253390D02*
X146928095Y-58301009D01*
X146928095Y-58301009D02*
X146832857Y-58348628D01*
X146832857Y-58348628D02*
X146451905Y-58348628D01*
X147975714Y-58824819D02*
X147404286Y-58824819D01*
X147690000Y-58824819D02*
X147690000Y-57824819D01*
X147690000Y-57824819D02*
X147594762Y-57967676D01*
X147594762Y-57967676D02*
X147499524Y-58062914D01*
X147499524Y-58062914D02*
X147404286Y-58110533D01*
X154494819Y-69243094D02*
X153494819Y-69243094D01*
X153494819Y-69243094D02*
X153494819Y-69004999D01*
X153494819Y-69004999D02*
X153542438Y-68862142D01*
X153542438Y-68862142D02*
X153637676Y-68766904D01*
X153637676Y-68766904D02*
X153732914Y-68719285D01*
X153732914Y-68719285D02*
X153923390Y-68671666D01*
X153923390Y-68671666D02*
X154066247Y-68671666D01*
X154066247Y-68671666D02*
X154256723Y-68719285D01*
X154256723Y-68719285D02*
X154351961Y-68766904D01*
X154351961Y-68766904D02*
X154447200Y-68862142D01*
X154447200Y-68862142D02*
X154494819Y-69004999D01*
X154494819Y-69004999D02*
X154494819Y-69243094D01*
X153590057Y-68290713D02*
X153542438Y-68243094D01*
X153542438Y-68243094D02*
X153494819Y-68147856D01*
X153494819Y-68147856D02*
X153494819Y-67909761D01*
X153494819Y-67909761D02*
X153542438Y-67814523D01*
X153542438Y-67814523D02*
X153590057Y-67766904D01*
X153590057Y-67766904D02*
X153685295Y-67719285D01*
X153685295Y-67719285D02*
X153780533Y-67719285D01*
X153780533Y-67719285D02*
X153923390Y-67766904D01*
X153923390Y-67766904D02*
X154494819Y-68338332D01*
X154494819Y-68338332D02*
X154494819Y-67719285D01*
X147023333Y-71324819D02*
X146690000Y-70848628D01*
X146451905Y-71324819D02*
X146451905Y-70324819D01*
X146451905Y-70324819D02*
X146832857Y-70324819D01*
X146832857Y-70324819D02*
X146928095Y-70372438D01*
X146928095Y-70372438D02*
X146975714Y-70420057D01*
X146975714Y-70420057D02*
X147023333Y-70515295D01*
X147023333Y-70515295D02*
X147023333Y-70658152D01*
X147023333Y-70658152D02*
X146975714Y-70753390D01*
X146975714Y-70753390D02*
X146928095Y-70801009D01*
X146928095Y-70801009D02*
X146832857Y-70848628D01*
X146832857Y-70848628D02*
X146451905Y-70848628D01*
X147404286Y-70420057D02*
X147451905Y-70372438D01*
X147451905Y-70372438D02*
X147547143Y-70324819D01*
X147547143Y-70324819D02*
X147785238Y-70324819D01*
X147785238Y-70324819D02*
X147880476Y-70372438D01*
X147880476Y-70372438D02*
X147928095Y-70420057D01*
X147928095Y-70420057D02*
X147975714Y-70515295D01*
X147975714Y-70515295D02*
X147975714Y-70610533D01*
X147975714Y-70610533D02*
X147928095Y-70753390D01*
X147928095Y-70753390D02*
X147356667Y-71324819D01*
X147356667Y-71324819D02*
X147975714Y-71324819D01*
X131157200Y-58333332D02*
X131204819Y-58190475D01*
X131204819Y-58190475D02*
X131204819Y-57952380D01*
X131204819Y-57952380D02*
X131157200Y-57857142D01*
X131157200Y-57857142D02*
X131109580Y-57809523D01*
X131109580Y-57809523D02*
X131014342Y-57761904D01*
X131014342Y-57761904D02*
X130919104Y-57761904D01*
X130919104Y-57761904D02*
X130823866Y-57809523D01*
X130823866Y-57809523D02*
X130776247Y-57857142D01*
X130776247Y-57857142D02*
X130728628Y-57952380D01*
X130728628Y-57952380D02*
X130681009Y-58142856D01*
X130681009Y-58142856D02*
X130633390Y-58238094D01*
X130633390Y-58238094D02*
X130585771Y-58285713D01*
X130585771Y-58285713D02*
X130490533Y-58333332D01*
X130490533Y-58333332D02*
X130395295Y-58333332D01*
X130395295Y-58333332D02*
X130300057Y-58285713D01*
X130300057Y-58285713D02*
X130252438Y-58238094D01*
X130252438Y-58238094D02*
X130204819Y-58142856D01*
X130204819Y-58142856D02*
X130204819Y-57904761D01*
X130204819Y-57904761D02*
X130252438Y-57761904D01*
X130204819Y-57428570D02*
X131204819Y-57190475D01*
X131204819Y-57190475D02*
X130490533Y-56999999D01*
X130490533Y-56999999D02*
X131204819Y-56809523D01*
X131204819Y-56809523D02*
X130204819Y-56571428D01*
X131204819Y-55666666D02*
X131204819Y-56238094D01*
X131204819Y-55952380D02*
X130204819Y-55952380D01*
X130204819Y-55952380D02*
X130347676Y-56047618D01*
X130347676Y-56047618D02*
X130442914Y-56142856D01*
X130442914Y-56142856D02*
X130490533Y-56238094D01*
X154574819Y-80518094D02*
X153574819Y-80518094D01*
X153574819Y-80518094D02*
X153574819Y-80279999D01*
X153574819Y-80279999D02*
X153622438Y-80137142D01*
X153622438Y-80137142D02*
X153717676Y-80041904D01*
X153717676Y-80041904D02*
X153812914Y-79994285D01*
X153812914Y-79994285D02*
X154003390Y-79946666D01*
X154003390Y-79946666D02*
X154146247Y-79946666D01*
X154146247Y-79946666D02*
X154336723Y-79994285D01*
X154336723Y-79994285D02*
X154431961Y-80041904D01*
X154431961Y-80041904D02*
X154527200Y-80137142D01*
X154527200Y-80137142D02*
X154574819Y-80279999D01*
X154574819Y-80279999D02*
X154574819Y-80518094D01*
X153574819Y-79613332D02*
X153574819Y-78994285D01*
X153574819Y-78994285D02*
X153955771Y-79327618D01*
X153955771Y-79327618D02*
X153955771Y-79184761D01*
X153955771Y-79184761D02*
X154003390Y-79089523D01*
X154003390Y-79089523D02*
X154051009Y-79041904D01*
X154051009Y-79041904D02*
X154146247Y-78994285D01*
X154146247Y-78994285D02*
X154384342Y-78994285D01*
X154384342Y-78994285D02*
X154479580Y-79041904D01*
X154479580Y-79041904D02*
X154527200Y-79089523D01*
X154527200Y-79089523D02*
X154574819Y-79184761D01*
X154574819Y-79184761D02*
X154574819Y-79470475D01*
X154574819Y-79470475D02*
X154527200Y-79565713D01*
X154527200Y-79565713D02*
X154479580Y-79613332D01*
D12*
G04 #@! TO.C,D1*
X160300000Y-56070000D02*
G75*
G02*
X155300000Y-56070000I-2500000J0D01*
G01*
X155300000Y-56070000D02*
G75*
G02*
X160300000Y-56070000I2500000J0D01*
G01*
X157800000Y-53080000D02*
G75*
G02*
X159344830Y-58630000I0J-2990000D01*
G01*
X156255170Y-58630000D02*
G75*
G02*
X157800000Y-53080000I1544830J2560000D01*
G01*
X156255000Y-58630000D02*
X159345000Y-58630000D01*
G04 #@! TO.C,BT1*
X114353000Y-58155600D02*
X110403000Y-59595600D01*
X114353000Y-79715600D02*
X110403000Y-78275600D01*
X114983000Y-58155600D02*
X114353000Y-58155600D01*
X114983000Y-79715600D02*
X114353000Y-79715600D01*
X123443000Y-58155600D02*
X120983000Y-58155600D01*
X123443000Y-79715600D02*
X120983000Y-79715600D01*
X125523000Y-60235600D02*
X123443000Y-58155600D01*
X125523000Y-63735600D02*
X125523000Y-60235600D01*
X125523000Y-77635600D02*
X123443000Y-79715600D01*
X125523000Y-77635600D02*
X125523000Y-74135600D01*
X109416470Y-62932246D02*
G75*
G02*
X110403000Y-59595600I1716531J1306646D01*
G01*
X110394831Y-78260843D02*
G75*
G02*
X109433000Y-74935600I738169J2015243D01*
G01*
G04 #@! TO.C,SW3*
X134500000Y-83750000D02*
X136000000Y-83750000D01*
X138500000Y-82500000D02*
X138500000Y-78000000D01*
X132000000Y-78000000D02*
X132000000Y-82500000D01*
X136000000Y-76750000D02*
X134500000Y-76750000D01*
G04 #@! TO.C,R3*
X149320000Y-82650000D02*
X142780000Y-82650000D01*
X149320000Y-82320000D02*
X149320000Y-82650000D01*
X149320000Y-80240000D02*
X149320000Y-79910000D01*
X149320000Y-79910000D02*
X142780000Y-79910000D01*
X142780000Y-82650000D02*
X142780000Y-82320000D01*
X142780000Y-79910000D02*
X142780000Y-80240000D01*
G04 #@! TO.C,SW2*
X134500000Y-72250000D02*
X136000000Y-72250000D01*
X138500000Y-71000000D02*
X138500000Y-66500000D01*
X132000000Y-66500000D02*
X132000000Y-71000000D01*
X136000000Y-65250000D02*
X134500000Y-65250000D01*
G04 #@! TO.C,R1*
X143920000Y-54630000D02*
X143920000Y-54960000D01*
X143920000Y-57370000D02*
X143920000Y-57040000D01*
X150460000Y-54630000D02*
X143920000Y-54630000D01*
X150460000Y-54960000D02*
X150460000Y-54630000D01*
X150460000Y-57040000D02*
X150460000Y-57370000D01*
X150460000Y-57370000D02*
X143920000Y-57370000D01*
G04 #@! TO.C,D2*
X156455000Y-71065000D02*
X159545000Y-71065000D01*
X156455170Y-71065000D02*
G75*
G02*
X158000000Y-65515000I1544830J2560000D01*
G01*
X158000000Y-65515000D02*
G75*
G02*
X159544830Y-71065000I0J-2990000D01*
G01*
X160500000Y-68505000D02*
G75*
G02*
X155500000Y-68505000I-2500000J0D01*
G01*
X155500000Y-68505000D02*
G75*
G02*
X160500000Y-68505000I2500000J0D01*
G01*
G04 #@! TO.C,R2*
X150460000Y-69870000D02*
X143920000Y-69870000D01*
X150460000Y-69540000D02*
X150460000Y-69870000D01*
X150460000Y-67460000D02*
X150460000Y-67130000D01*
X150460000Y-67130000D02*
X143920000Y-67130000D01*
X143920000Y-69870000D02*
X143920000Y-69540000D01*
X143920000Y-67130000D02*
X143920000Y-67460000D01*
G04 #@! TO.C,SW1*
X134250000Y-60500000D02*
X135750000Y-60500000D01*
X138250000Y-59250000D02*
X138250000Y-54750000D01*
X131750000Y-54750000D02*
X131750000Y-59250000D01*
X135750000Y-53500000D02*
X134250000Y-53500000D01*
G04 #@! TO.C,D3*
X156535000Y-82340000D02*
X159625000Y-82340000D01*
X156535170Y-82340000D02*
G75*
G02*
X158080000Y-76790000I1544830J2560000D01*
G01*
X158080000Y-76790000D02*
G75*
G02*
X159624830Y-82340000I0J-2990000D01*
G01*
X160580000Y-79780000D02*
G75*
G02*
X155580000Y-79780000I-2500000J0D01*
G01*
X155580000Y-79780000D02*
G75*
G02*
X160580000Y-79780000I2500000J0D01*
G01*
G04 #@! TD*
%LPC*%
D13*
G04 #@! TO.C,D1*
X157800000Y-54800000D03*
D14*
X157800000Y-57340000D03*
G04 #@! TD*
D15*
G04 #@! TO.C,BT1*
X117983000Y-57950600D03*
X117983000Y-79920600D03*
D16*
X117983000Y-68935600D03*
G04 #@! TD*
D17*
G04 #@! TO.C,SW3*
X133000000Y-83500000D03*
X133000000Y-77000000D03*
X137500000Y-83500000D03*
X137500000Y-77000000D03*
G04 #@! TD*
D18*
G04 #@! TO.C,R3*
X149860000Y-81280000D03*
X142240000Y-81280000D03*
G04 #@! TD*
D17*
G04 #@! TO.C,SW2*
X133000000Y-72000000D03*
X133000000Y-65500000D03*
X137500000Y-72000000D03*
X137500000Y-65500000D03*
G04 #@! TD*
D18*
G04 #@! TO.C,R1*
X151000000Y-56000000D03*
X143380000Y-56000000D03*
G04 #@! TD*
D14*
G04 #@! TO.C,D2*
X158000000Y-69775000D03*
D13*
X158000000Y-67235000D03*
G04 #@! TD*
D18*
G04 #@! TO.C,R2*
X151000000Y-68500000D03*
X143380000Y-68500000D03*
G04 #@! TD*
D17*
G04 #@! TO.C,SW1*
X132750000Y-60250000D03*
X132750000Y-53750000D03*
X137250000Y-60250000D03*
X137250000Y-53750000D03*
G04 #@! TD*
D14*
G04 #@! TO.C,D3*
X158080000Y-81050000D03*
D13*
X158080000Y-78510000D03*
G04 #@! TD*
%LPD*%
M02*
